<svg width="18" height="19" viewBox="0 0 18 19" fill="none" xmlns="http://www.w3.org/2000/svg">
<path d="M5.25 11.0007H6.75V12.5007H5.25V11.0007Z" fill="url(#paint0_linear_153_452)"/>
<path d="M5.25 11.0007H6.75V12.5007H5.25V11.0007Z" fill="black" fill-opacity="0.2"/>
<path d="M14.25 2H8.25C7.85218 2 7.47064 2.15804 7.18934 2.43934C6.90804 2.72064 6.75 3.10218 6.75 3.5V8H3.75C2.92275 8 2.25 8.67275 2.25 9.5V16.25C2.25 16.4489 2.32902 16.6397 2.46967 16.7803C2.61032 16.921 2.80109 17 3 17H15C15.1989 17 15.3897 16.921 15.5303 16.7803C15.671 16.6397 15.75 16.4489 15.75 16.25V3.5C15.75 3.10218 15.592 2.72064 15.3107 2.43934C15.0294 2.15804 14.6478 2 14.25 2ZM3.75 15.5V9.5H8.25V15.5H3.75ZM10.5 6.5H9V5H10.5V6.5ZM13.5 12.5H12V11H13.5V12.5ZM13.5 9.5H12V8H13.5V9.5ZM13.5 6.5H12V5H13.5V6.5Z" fill="url(#paint1_linear_153_452)"/>
<path d="M14.25 2H8.25C7.85218 2 7.47064 2.15804 7.18934 2.43934C6.90804 2.72064 6.75 3.10218 6.75 3.5V8H3.75C2.92275 8 2.25 8.67275 2.25 9.5V16.25C2.25 16.4489 2.32902 16.6397 2.46967 16.7803C2.61032 16.921 2.80109 17 3 17H15C15.1989 17 15.3897 16.921 15.5303 16.7803C15.671 16.6397 15.75 16.4489 15.75 16.25V3.5C15.75 3.10218 15.592 2.72064 15.3107 2.43934C15.0294 2.15804 14.6478 2 14.25 2ZM3.75 15.5V9.5H8.25V15.5H3.75ZM10.5 6.5H9V5H10.5V6.5ZM13.5 12.5H12V11H13.5V12.5ZM13.5 9.5H12V8H13.5V9.5ZM13.5 6.5H12V5H13.5V6.5Z" fill="black" fill-opacity="0.2"/>
<defs>
<linearGradient id="paint0_linear_153_452" x1="4.86058" y1="11.8169" x2="8.77462" y2="11.84" gradientUnits="userSpaceOnUse">
<stop stop-color="white"/>
<stop offset="1" stop-color="#00A983"/>
</linearGradient>
<linearGradient id="paint1_linear_153_452" x1="-1.25481" y1="10.1618" x2="33.9718" y2="10.3485" gradientUnits="userSpaceOnUse">
<stop stop-color="white"/>
<stop offset="1" stop-color="#00A983"/>
</linearGradient>
</defs>
</svg>
