<svg width="43" height="43" viewBox="0 0 43 43" fill="none" xmlns="http://www.w3.org/2000/svg">
<path opacity="0.2" d="M21.5 43C33.3741 43 43 33.3741 43 21.5C43 9.62588 33.3741 0 21.5 0C9.62588 0 0 9.62588 0 21.5C0 33.3741 9.62588 43 21.5 43Z" fill="#5E4778"/>
<path fill-rule="evenodd" clip-rule="evenodd" d="M15.5831 30.8138L12.9002 28.2024L11.5771 26.2439V12.5344L21.4999 10.5759L30.7618 12.5344V26.8968L28.7771 30.1609L24.1464 32.7723L21.4999 34.078L15.5831 30.8138Z" fill="white"/>
<path fill-rule="evenodd" clip-rule="evenodd" d="M11.5771 12.0381L21.4901 9.9231L31.4232 12.0381V26.0631C31.4232 30.437 22.0631 34.5028 21.6609 34.6568L21.5001 34.7188L21.3393 34.6568C19.4492 33.7635 17.6191 32.7368 15.8701 31.5663C13.6382 30.057 11.5771 28.1165 11.5771 26.0631V12.0381ZM21.4901 33.435C24.1746 32.3569 30.619 29.1227 30.619 26.0631L30.6196 26.0632L30.6095 12.7877L21.5303 11.2992H21.4499L12.3705 12.7877V26.1945C12.3705 26.2018 12.3692 26.2065 12.3681 26.2109C12.3659 26.219 12.364 26.226 12.3705 26.2458C12.381 26.2757 12.3877 26.3067 12.3907 26.3382C12.3907 26.3477 12.3927 26.3549 12.395 26.3629C12.3977 26.3726 12.4008 26.3833 12.4008 26.4002C12.4008 26.4172 12.4038 26.4341 12.4066 26.4494C12.4088 26.4618 12.4108 26.4731 12.4108 26.4824C12.4099 26.5035 12.4134 26.5246 12.4209 26.5444C12.426 26.5598 12.4285 26.5726 12.431 26.5855C12.4335 26.5983 12.436 26.6111 12.4411 26.6266C12.4455 26.6401 12.448 26.6516 12.4502 26.662C12.4531 26.6754 12.4556 26.6869 12.4612 26.6985C12.4725 26.7208 12.4794 26.7453 12.4814 26.7704C12.4814 26.7807 12.4864 26.7935 12.4915 26.8063C12.4965 26.8192 12.5016 26.832 12.5016 26.8423C12.5036 26.8674 12.5104 26.8918 12.5217 26.9142C12.5336 26.9373 12.5437 26.9614 12.5518 26.9861C12.5569 27.0017 12.5619 27.012 12.567 27.0224C12.572 27.0326 12.577 27.0428 12.582 27.058C12.5903 27.086 12.6004 27.1135 12.6121 27.1402C12.6242 27.1598 12.6342 27.1805 12.6422 27.2022C12.6473 27.2177 12.6548 27.2305 12.6624 27.2434C12.6699 27.2562 12.6774 27.2691 12.6824 27.2844L12.7125 27.3464C12.7218 27.3757 12.7354 27.4034 12.7527 27.4286L12.7929 27.4906C12.8051 27.5028 12.8136 27.519 12.8228 27.5367C12.8289 27.5483 12.8352 27.5606 12.8432 27.5728L12.8733 27.6347L12.9341 27.7271L12.9642 27.7784L13.0249 27.8708L13.0651 27.9221L13.1354 28.0145L13.1757 28.0658L13.246 28.1582L13.2862 28.1992L13.3666 28.3019L13.3967 28.3429L13.4872 28.4456L13.5173 28.4866L13.6078 28.5892L13.6379 28.6303L13.7385 28.7329L13.7686 28.7637L13.8793 28.8663L13.9094 28.8971L14.02 29.01L14.0501 29.0408L14.1608 29.1537L14.1909 29.1743L14.3115 29.2872L14.3317 29.3078L14.4624 29.4208L14.4825 29.4413L14.6233 29.5543L14.6435 29.5646L14.7943 29.6775L14.8145 29.6878L14.9753 29.811L14.9854 29.8213L15.1464 29.9436L15.1565 29.9538L15.3173 30.0771L15.3274 30.0874L15.4983 30.2106L15.6793 30.3441L15.8602 30.4674C17.3884 31.5146 19.1277 32.4078 20.4648 33.0136H20.4749L20.6257 33.0756H20.6356L20.7663 33.1269L20.7864 33.1372L20.907 33.1885L20.9371 33.1988L21.0478 33.2501L21.0779 33.2604L21.1684 33.3015L21.2187 33.322L21.3092 33.3631L21.3595 33.3837L21.4901 33.435Z" fill="#5E4778"/>
<path fill-rule="evenodd" clip-rule="evenodd" d="M21.4901 12.3257L14.6136 13.4551L13.1958 13.681V25.7039C13.1958 28.4863 19.0571 31.4329 21.4901 32.4084C22.9077 31.8437 25.4815 30.6116 27.3817 29.1332C27.4286 29.0955 27.4766 29.0579 27.5246 29.0202C27.6207 28.9449 27.7168 28.8696 27.804 28.7943C28.4574 28.2502 29.0003 27.6752 29.3523 27.09C29.6238 26.6383 29.7846 26.1762 29.7846 25.7139V13.681L21.4901 12.3257ZM17.4887 18.7015H22.3245V19.7283H17.4887V18.7015ZM22.968 23.1886C25.2603 23.1886 26.9192 21.6175 26.9192 19.1842H26.9189C26.9189 16.7509 25.2601 15.2313 22.9577 15.2313H18.3132V16.4018L21.4901 16.3915H22.8175C24.5067 16.3915 25.6226 17.4183 25.6226 19.1842C25.6226 20.9707 24.5067 22.0282 22.7975 22.0282H18.5343V28.3222H19.7911V23.1886H22.968Z" fill="#5E4778"/>
<path fill-rule="evenodd" clip-rule="evenodd" d="M21.4899 9.9231V11.2992H21.5301L30.6093 12.7877V26.0524C30.6093 29.112 24.1649 32.3462 21.4805 33.4243V34.7077L21.6413 34.6457C22.0434 34.4918 31.4035 30.426 31.4035 26.0521V12.0381L21.4899 9.9231Z" fill="#5E4778"/>
<path fill-rule="evenodd" clip-rule="evenodd" d="M19.7913 23.1781H22.9579V23.1782C25.2602 23.1782 26.909 21.6071 26.909 19.1738C26.909 16.7612 25.2502 15.2313 22.9579 15.2313H18.3134V16.4018L21.4903 16.3915H22.818C24.5071 16.3915 25.623 17.4183 25.623 19.1842C25.623 20.9707 24.5071 22.0282 22.7979 22.0282H18.5348V22.6032C15.8907 19.7386 14.9355 16.0938 14.6138 13.4551L21.5004 12.3257L29.7947 13.681V25.7035C29.7947 26.1658 29.6339 26.6279 29.3625 27.0796C26.0749 26.9256 23.5011 26.1351 21.5004 24.9646C20.9011 24.6176 20.3296 24.2227 19.7913 23.7837V23.1781ZM22.3142 18.7015H21.4903H17.4889V19.7283H22.3142V18.7015Z" fill="#5E4778"/>
<path fill-rule="evenodd" clip-rule="evenodd" d="M21.3695 33.3837L21.3193 33.3631L21.2288 33.3323L21.1785 33.3118L21.088 33.2707L21.0579 33.2604L20.9472 33.2091L20.9171 33.1988L20.7965 33.1475L20.7763 33.1372L20.6456 33.0752H20.6257L20.4749 33.0132H20.4648C19.1378 32.4075 17.3984 31.5142 15.8702 30.4567L15.6892 30.3335L15.5082 30.1898L15.3374 30.0665L15.3273 30.0563L15.1665 29.933L15.1564 29.9227L14.9956 29.7995L14.9855 29.7892L14.8247 29.666L14.8045 29.6557L14.6537 29.5427L14.6335 29.5325L14.4927 29.4195L14.4727 29.3998L14.342 29.2869L14.3218 29.2663L14.2012 29.1533L14.1711 29.1328L14.0605 29.0198L14.0303 28.9891L13.9197 28.8761L13.8896 28.8454L13.7789 28.7427L13.7488 28.712L13.6482 28.6093L13.6181 28.5683L13.5276 28.4656L13.4975 28.4246L13.407 28.3219L13.3769 28.2809L13.2864 28.1987L13.2462 28.1577L13.1759 28.0653L13.1357 28.014L13.0654 27.9216L13.0252 27.8703L12.9644 27.7779L12.9343 27.7266L12.8736 27.6343L12.8435 27.5829C12.8233 27.5522 12.8133 27.5209 12.7932 27.5007L12.753 27.4387L12.7128 27.3565L12.6827 27.2946C12.6726 27.2638 12.6525 27.2432 12.6425 27.2124C12.6345 27.1907 12.6244 27.1699 12.6123 27.1504C12.6006 27.1236 12.5906 27.0962 12.5822 27.0682C12.5721 27.0374 12.562 27.0271 12.5521 26.9963C12.5439 26.9715 12.5338 26.9475 12.522 26.9244C12.5094 26.9025 12.5024 26.8778 12.5018 26.8525C12.5018 26.8217 12.4816 26.7905 12.4816 26.7703C12.4796 26.7452 12.4728 26.7207 12.4615 26.6984C12.4514 26.6778 12.4514 26.6573 12.4413 26.6264C12.4312 26.5956 12.4312 26.5751 12.4212 26.5443C12.4136 26.5245 12.4102 26.5034 12.4111 26.4823C12.4111 26.4617 12.401 26.4309 12.401 26.4001C12.401 26.3692 12.3909 26.359 12.3909 26.3381C12.388 26.3066 12.3812 26.2755 12.3708 26.2457C12.3607 26.215 12.3708 26.215 12.3708 26.1944V12.7877L21.4499 11.2992H21.4901V9.9231L11.5771 12.0381V26.0631C11.5771 28.1165 13.6382 30.057 15.8701 31.5663C17.6191 32.7368 19.4492 33.7635 21.3393 34.6568L21.5001 34.7188V33.435L21.3694 33.3837" fill="#3D3144"/>
<path fill-rule="evenodd" clip-rule="evenodd" d="M21.4901 24.9646C20.8908 24.6175 20.3193 24.2227 19.781 23.7837V28.3212H18.5245V22.6031C15.8801 19.7283 14.9351 16.0834 14.6136 13.4551L13.1958 13.681V25.7038C13.1958 28.4862 19.0571 31.4329 21.4901 32.4084C22.9077 31.8436 25.4815 30.6116 27.3817 29.1331C27.5224 29.0202 27.6732 28.9073 27.804 28.7943C28.4574 28.2502 29.0003 27.6752 29.3523 27.09C26.0647 26.9155 23.501 26.1249 21.4903 24.9647" fill="#3D3144"/>
</svg>
