<svg width="43" height="43" viewBox="0 0 43 43" fill="none" xmlns="http://www.w3.org/2000/svg">
<path opacity="0.2" d="M21.5 43C33.3741 43 43 33.3741 43 21.5C43 9.62588 33.3741 0 21.5 0C9.62588 0 0 9.62588 0 21.5C0 33.3741 9.62588 43 21.5 43Z" fill="#6DDFFF"/>
<mask id="mask0_122_3564" style="mask-type:luminance" maskUnits="userSpaceOnUse" x="0" y="0" width="43" height="43">
<path d="M21.5 43C33.3741 43 43 33.3741 43 21.5C43 9.62588 33.3741 0 21.5 0C9.62588 0 0 9.62588 0 21.5C0 33.3741 9.62588 43 21.5 43Z" fill="white"/>
</mask>
<g mask="url(#mask0_122_3564)">
<path fill-rule="evenodd" clip-rule="evenodd" d="M27.2142 20.7713C26.0196 22.217 24.8562 23.6423 24.8562 23.6423C24.8562 23.6423 25.879 25.2689 25.462 27.5681C25.0453 29.8668 23.7246 31.4232 23.7246 31.4232C23.7246 31.4232 23.6147 30.0712 23.3155 29.3167C23.0172 28.562 21.8382 27.0687 21.8382 27.0687C21.8382 27.0687 21.304 27.7187 20.6857 27.7501C20.452 27.7617 20.0764 27.5795 19.638 27.3032C19.586 27.3814 19.5327 27.4595 19.4777 27.5367C17.7567 29.9683 15.359 31.2299 14.1228 30.3552C12.8863 29.4797 13.2791 26.7995 15.0006 24.368C15.0734 24.2647 15.1476 24.1649 15.223 24.0664C14.7402 23.6597 14.3895 23.286 14.3665 23.0237C14.314 22.4263 14.5863 22.0179 14.5863 22.0179C14.5863 22.0179 13.4337 21.5362 12.2809 21.5044C11.1284 21.4727 9.92285 21.8185 9.92285 21.8185C9.92285 21.8185 11.0338 19.9322 12.8469 18.9263C14.6598 17.9202 16.9548 17.9621 16.9548 17.9621C16.9548 17.9621 18.0026 16.1493 18.5059 15.3005L18.5636 15.2027C19.086 14.3161 20.1243 12.5538 22.7081 11.1611C25.3906 9.71509 28.5974 9.93507 28.5974 9.93507C28.5974 9.93507 29.4566 12.366 29.4566 14.8813C29.4566 17.3965 28.4089 19.3248 27.2142 20.7713ZM23.7553 14.0732C22.3371 14.0732 21.1874 15.2226 21.1874 16.6407C21.1874 18.0587 22.3371 19.2082 23.7553 19.2082C25.1729 19.2082 26.3226 18.0587 26.3226 16.6407C26.3227 15.2226 25.1731 14.0732 23.7553 14.0732ZM15.3501 28.5857C14.4842 27.9465 14.7071 26.177 15.8469 24.6339C15.849 24.6308 15.8513 24.628 15.8535 24.6252C15.856 24.6221 15.8585 24.6189 15.8609 24.6155C16.17 24.8466 16.4916 25.0766 16.7938 25.2927C16.942 25.3987 17.0856 25.5013 17.2207 25.5992C17.4396 25.7581 17.6758 25.9353 17.9191 26.1178C18.2767 26.386 18.6495 26.6657 19.0044 26.9152C19.0007 26.9204 18.9972 26.9255 18.9937 26.9307C18.9896 26.9368 18.9855 26.9429 18.981 26.9489C17.8407 28.4924 16.2155 29.2247 15.3501 28.5857Z" fill="#6DDFFF"/>
<path fill-rule="evenodd" clip-rule="evenodd" d="M5.78857 37.2117L9.26708 32.5955C9.45225 32.3498 9.80156 32.3007 10.0473 32.4859V32.4859C10.293 32.6711 10.3421 33.0204 10.1569 33.2661L6.67843 37.8822L5.78857 37.2117Z" fill="#6DDFFF"/>
<path fill-rule="evenodd" clip-rule="evenodd" d="M7.63135 38.6516L9.89028 35.6539C10.0754 35.4082 10.4248 35.3591 10.6705 35.5443V35.5443C10.9162 35.7294 10.9653 36.0787 10.7801 36.3245L8.5212 39.3222L7.63135 38.6516Z" fill="#6DDFFF"/>
</g>
</svg>
