<svg width="32" height="32" viewBox="0 0 32 32" fill="none" xmlns="http://www.w3.org/2000/svg">
<path d="M31.518 19.8708C29.381 28.4423 20.699 33.6583 12.1265 31.5213C3.55804 29.3843 -1.65846 20.7023 0.479037 12.1313C2.61504 3.5588 11.2965 -1.6582 19.8665 0.478798C28.4385 2.6158 33.6545 11.2988 31.5175 19.8708H31.518Z" fill="#F7931A"/>
<path fill-rule="evenodd" clip-rule="evenodd" d="M20.8172 14.1408C21.0329 12.6965 19.9333 11.9201 18.4296 11.4021L18.9174 9.44567L17.7261 9.14888L17.2513 11.0538C16.9385 10.9758 16.617 10.9022 16.2975 10.8292L16.7757 8.91178L15.5855 8.61499L15.0974 10.5708C14.8383 10.5118 14.5839 10.4534 14.3369 10.392L14.3383 10.3859L12.6959 9.97583L12.3791 11.2478C12.3791 11.2478 13.2627 11.4503 13.2441 11.4629C13.7264 11.5833 13.8139 11.9024 13.799 12.1555L13.2434 14.3843C13.2766 14.3928 13.3197 14.405 13.3672 14.424L13.2417 14.3928L12.4626 17.5151C12.4035 17.6616 12.254 17.8814 11.9168 17.798C11.9287 17.8153 11.0512 17.5819 11.0512 17.5819L10.46 18.9454L12.0101 19.3318C12.1851 19.3756 12.358 19.4207 12.5289 19.4654L12.5293 19.4654C12.6399 19.4943 12.7497 19.5229 12.8587 19.5509L12.3659 21.5301L13.5554 21.8269L14.0439 19.8691C14.3685 19.9573 14.6839 20.0387 14.9926 20.1153L14.5062 22.064L15.6971 22.3608L16.1899 20.3857C18.2207 20.77 19.7481 20.615 20.3902 18.7786C20.9081 17.2997 20.3647 16.4466 19.2963 15.89C20.0744 15.7099 20.6605 15.198 20.8169 14.1408H20.8172ZM18.0967 17.9566C17.7587 19.3139 15.6336 18.7523 14.6622 18.4956C14.5752 18.4726 14.4975 18.4521 14.4311 18.4356L15.085 15.8139C15.1662 15.8342 15.2653 15.8564 15.3775 15.8816L15.3776 15.8816C16.3826 16.1071 18.4422 16.5693 18.0971 17.9566H18.0967ZM15.5783 14.6653C16.3889 14.8815 18.1557 15.3529 18.4635 14.1198C18.7781 12.8584 17.0601 12.4782 16.221 12.2925C16.1267 12.2716 16.0435 12.2532 15.9755 12.2363L15.3826 14.614C15.4387 14.628 15.5045 14.6456 15.5783 14.6653Z" fill="white"/>
</svg>
