<svg width="43" height="43" viewBox="0 0 43 43" fill="none" xmlns="http://www.w3.org/2000/svg">
<path opacity="0.2" fill-rule="evenodd" clip-rule="evenodd" d="M21.5 43C33.3741 43 43 33.3741 43 21.5C43 9.62588 33.3741 0 21.5 0C9.62588 0 0 9.62588 0 21.5C0 33.3741 9.62588 43 21.5 43Z" fill="#83BD67"/>
<path fill-rule="evenodd" clip-rule="evenodd" d="M19.6166 11.5769C20.7974 11.5769 21.9738 11.5769 23.1546 11.5769C23.0851 12.3757 23.0113 13.1788 22.9462 13.9775C24.3224 14.0774 25.6638 14.5202 26.8706 15.1757C26.3497 16.4867 25.8244 17.7977 25.2991 19.1087C24.2833 18.2449 22.9462 17.7673 21.6135 17.7847C21.2792 17.7934 20.9319 17.8585 20.6541 18.0495C20.4718 18.1754 20.3372 18.3708 20.2981 18.5878C20.2678 18.7615 20.2764 18.9568 20.3719 19.1131C20.4805 19.2867 20.6715 19.3909 20.8625 19.456C21.2532 19.5949 21.6743 19.6036 22.0823 19.647C23.0417 19.7642 24.0055 19.9292 24.9127 20.2722C25.616 20.5413 26.2889 20.945 26.7707 21.5354C27.2266 22.0781 27.4914 22.764 27.5912 23.4672C27.7084 24.279 27.6737 25.1212 27.4219 25.9113C27.2266 26.5451 26.8923 27.1355 26.4582 27.6347C25.5596 28.6766 24.2399 29.3017 22.8854 29.4623C22.9289 30.3175 22.9809 31.1684 23.0287 32.0236C21.9087 32.0236 20.793 32.0236 19.6774 32.0236C19.7208 31.177 19.7772 30.3305 19.8163 29.484C18.9177 29.4536 18.0277 29.2539 17.1899 28.937C16.3781 28.6288 15.6054 28.2207 14.8848 27.7432C15.4144 26.3801 15.944 25.017 16.478 23.6495C17.0814 24.1575 17.7239 24.6306 18.4271 24.991C19.1825 25.3773 20.0203 25.6248 20.8712 25.6334C21.2749 25.6378 21.6916 25.6161 22.0737 25.4772C22.3081 25.3903 22.5382 25.2384 22.6423 24.9996C22.7509 24.7479 22.7422 24.431 22.5772 24.2052C22.46 24.0533 22.2951 23.9491 22.1214 23.8753C21.887 23.7798 21.6439 23.7277 21.3964 23.6886C20.4848 23.541 19.5688 23.4195 18.6876 23.133C17.98 22.9029 17.2897 22.5816 16.7254 22.0867C16.3694 21.7785 16.0742 21.4009 15.8659 20.9754C15.5533 20.3416 15.4361 19.6253 15.4448 18.9221C15.4448 18.1363 15.6054 17.3376 15.9961 16.6473C16.3347 16.0309 16.8513 15.5273 17.433 15.141C18.1363 14.6765 18.922 14.3596 19.7208 14.1034C19.686 13.2613 19.6513 12.4191 19.6166 11.5769Z" fill="#83BD67"/>
</svg>
