<svg width="43" height="43" viewBox="0 0 43 43" fill="none" xmlns="http://www.w3.org/2000/svg">
<path opacity="0.2" d="M21.5 43C33.3741 43 43 33.3741 43 21.5C43 9.62588 33.3741 0 21.5 0C9.62588 0 0 9.62588 0 21.5C0 33.3741 9.62588 43 21.5 43Z" fill="#326464"/>
<path fill-rule="evenodd" clip-rule="evenodd" d="M11.9329 30.2962L12.6018 30.965C15.5532 32.2009 18.5047 33.4513 21.4707 34.6726V29.293L15.9458 27.0103L13.6631 21.4854L15.9458 15.9605L11.9329 12.6455L8.26904 21.4709L11.9329 30.2962Z" fill="#598282"/>
<path fill-rule="evenodd" clip-rule="evenodd" d="M21.4709 8.26929C18.5194 9.49059 15.5534 10.741 12.6019 11.9768L11.9331 12.6456L15.946 15.946L21.4709 13.6634V8.26929Z" fill="#FBBB31"/>
<path fill-rule="evenodd" clip-rule="evenodd" d="M21.4707 15.946L17.5597 17.5744L15.9458 21.471L17.5597 25.3821L21.4707 26.9959V15.946Z" fill="#598282"/>
<path fill-rule="evenodd" clip-rule="evenodd" d="M21.4706 34.6726C24.4221 33.4513 27.3736 32.2009 30.325 30.965L30.9938 30.2962L34.6577 21.4709L30.9938 12.6455L26.981 15.9459L29.2637 21.4709L26.981 26.9958L21.4561 29.2785V34.6726H21.4706Z" fill="#326464"/>
<path fill-rule="evenodd" clip-rule="evenodd" d="M31.0085 12.6456L30.3397 11.9623C27.3737 10.741 24.4222 9.50513 21.4707 8.26929V13.6488L26.9956 15.9315L31.0085 12.6456Z" fill="#FAAA00"/>
<path fill-rule="evenodd" clip-rule="evenodd" d="M21.4707 26.9959L25.3818 25.3821L26.9956 21.471L25.3818 17.5744L21.4707 15.946V26.9959Z" fill="#326464"/>
</svg>
