<svg width="16" height="16" viewBox="0 0 16 16" fill="none" xmlns="http://www.w3.org/2000/svg">
<path fill-rule="evenodd" clip-rule="evenodd" d="M14.2615 14.2615C14.3865 14.1364 14.4567 13.9669 14.4567 13.7901C14.4567 13.6133 14.3865 13.4438 14.2615 13.3188L8.93818 7.99479C8.87669 7.93111 8.80312 7.88032 8.72179 7.84538C8.64045 7.81045 8.55297 7.79205 8.46445 7.79128C8.37593 7.79052 8.28815 7.80738 8.20621 7.8409C8.12428 7.87442 8.04985 7.92393 7.98725 7.98652C7.92466 8.04912 7.87516 8.12355 7.84164 8.20548C7.80812 8.28741 7.79125 8.3752 7.79202 8.46372C7.79279 8.55224 7.81118 8.63972 7.84612 8.72106C7.88106 8.80239 7.93184 8.87595 7.99552 8.93745L13.3189 14.2615C13.4439 14.3864 13.6134 14.4566 13.7902 14.4566C13.967 14.4566 14.1365 14.3864 14.2615 14.2615Z" fill="#DEDEDE"/>
<path fill-rule="evenodd" clip-rule="evenodd" d="M14.457 13.79C14.457 13.9668 14.3868 14.1364 14.2618 14.2614C14.1368 14.3864 13.9672 14.4566 13.7904 14.4566H10.9624C10.7856 14.4566 10.616 14.3864 10.491 14.2614C10.3659 14.1364 10.2957 13.9668 10.2957 13.79C10.2957 13.6132 10.3659 13.4436 10.491 13.3186C10.616 13.1935 10.7856 13.1233 10.9624 13.1233H13.1237V10.962C13.1237 10.7852 13.1939 10.6156 13.319 10.4906C13.444 10.3655 13.6136 10.2953 13.7904 10.2953C13.9672 10.2953 14.1368 10.3655 14.2618 10.4906C14.3868 10.6156 14.457 10.7852 14.457 10.962V13.79ZM1.74304 1.74264C1.80496 1.68066 1.87848 1.63149 1.95942 1.59794C2.04035 1.56439 2.1271 1.54712 2.21471 1.54712C2.30232 1.54712 2.38907 1.56439 2.47 1.59794C2.55093 1.63149 2.62446 1.68066 2.68638 1.74264L8.27238 7.32798C8.39747 7.45307 8.46775 7.62273 8.46775 7.79964C8.46775 7.97655 8.39747 8.14622 8.27238 8.27131C8.14728 8.3964 7.97762 8.46668 7.80071 8.46668C7.6238 8.46668 7.45414 8.3964 7.32904 8.27131L1.74304 2.68531C1.61806 2.56029 1.54785 2.39075 1.54785 2.21398C1.54785 2.0372 1.61806 1.86766 1.74304 1.74264Z" fill="#DEDEDE"/>
<path fill-rule="evenodd" clip-rule="evenodd" d="M2.21504 1.5481C2.03823 1.5481 1.86866 1.61833 1.74364 1.74336C1.61861 1.86838 1.54838 2.03795 1.54838 2.21476V5.04276C1.54838 5.21957 1.61861 5.38914 1.74364 5.51417C1.86866 5.63919 2.03823 5.70943 2.21504 5.70943C2.39185 5.70943 2.56142 5.63919 2.68645 5.51417C2.81147 5.38914 2.88171 5.21957 2.88171 5.04276V2.88143H5.04304C5.21985 2.88143 5.38942 2.81119 5.51445 2.68617C5.63947 2.56114 5.70971 2.39157 5.70971 2.21476C5.70971 2.03795 5.63947 1.86838 5.51445 1.74336C5.38942 1.61833 5.21985 1.5481 5.04304 1.5481H2.21504ZM1.74304 14.2614C1.61806 14.1364 1.54785 13.9669 1.54785 13.7901C1.54785 13.6133 1.61806 13.4438 1.74304 13.3188L7.66238 7.4001C7.78811 7.27866 7.95651 7.21146 8.13131 7.21298C8.30611 7.2145 8.47332 7.28461 8.59692 7.40822C8.72053 7.53182 8.79064 7.69903 8.79216 7.87383C8.79368 8.04863 8.72648 8.21703 8.60504 8.34276L2.68704 14.2614C2.62513 14.3234 2.5516 14.3726 2.47067 14.4061C2.38974 14.4397 2.30299 14.457 2.21538 14.457C2.12777 14.457 2.04101 14.4397 1.96008 14.4061C1.87915 14.3726 1.80496 14.3234 1.74304 14.2614Z" fill="#DEDEDE"/>
<path fill-rule="evenodd" clip-rule="evenodd" d="M1.54754 13.7899C1.54754 13.9667 1.61778 14.1363 1.7428 14.2613C1.86783 14.3863 2.0374 14.4566 2.21421 14.4566H5.04288C5.21969 14.4566 5.38926 14.3863 5.51428 14.2613C5.6393 14.1363 5.70954 13.9667 5.70954 13.7899C5.70954 13.6131 5.6393 13.4435 5.51428 13.3185C5.38926 13.1935 5.21969 13.1232 5.04288 13.1232H2.88021V10.9619C2.88021 10.7851 2.80997 10.6155 2.68495 10.4905C2.55992 10.3655 2.39035 10.2952 2.21354 10.2952C2.03673 10.2952 1.86716 10.3655 1.74214 10.4905C1.61711 10.6155 1.54688 10.7851 1.54688 10.9619L1.54754 13.7899ZM14.2615 1.74255C14.1365 1.61757 13.967 1.54736 13.7902 1.54736C13.6134 1.54736 13.4439 1.61757 13.3189 1.74255L7.66221 7.39989C7.59854 7.46139 7.54775 7.53495 7.51281 7.61628C7.47787 7.69762 7.45948 7.7851 7.45871 7.87362C7.45794 7.96214 7.47481 8.04993 7.50833 8.13186C7.54185 8.21379 7.59135 8.28822 7.65395 8.35082C7.71654 8.41341 7.79097 8.46291 7.87291 8.49644C7.95484 8.52996 8.04262 8.54682 8.13114 8.54605C8.21966 8.54529 8.30714 8.52689 8.38848 8.49195C8.46981 8.45702 8.54338 8.40623 8.60488 8.34255L14.2615 2.68522C14.3865 2.5602 14.4567 2.39066 14.4567 2.21389C14.4567 2.03711 14.3865 1.86757 14.2615 1.74255Z" fill="#DEDEDE"/>
<path fill-rule="evenodd" clip-rule="evenodd" d="M13.7903 1.5481C13.9671 1.5481 14.1366 1.61833 14.2617 1.74336C14.3867 1.86838 14.4569 2.03795 14.4569 2.21476V5.04276C14.4569 5.21957 14.3867 5.38914 14.2617 5.51417C14.1366 5.63919 13.9671 5.70943 13.7903 5.70943C13.6134 5.70943 13.4439 5.63919 13.3189 5.51417C13.1938 5.38914 13.1236 5.21957 13.1236 5.04276V2.88143H10.9616C10.7848 2.88143 10.6152 2.81119 10.4902 2.68617C10.3652 2.56114 10.2949 2.39157 10.2949 2.21476C10.2949 2.03795 10.3652 1.86838 10.4902 1.74336C10.6152 1.61833 10.7848 1.5481 10.9616 1.5481H13.7903Z" fill="#DEDEDE"/>
</svg>
