<svg width="18" height="19" viewBox="0 0 18 19" fill="none" xmlns="http://www.w3.org/2000/svg">
<path d="M1.80005 9.50005C1.80005 7.59049 2.55862 5.75914 3.90888 4.40888C5.25914 3.05862 7.09049 2.30005 9.00005 2.30005C10.9096 2.30005 12.741 3.05862 14.0912 4.40888C15.4415 5.75914 16.2 7.59049 16.2 9.50005C16.2 11.4096 15.4415 13.241 14.0912 14.5912C12.741 15.9415 10.9096 16.7 9.00005 16.7C7.09049 16.7 5.25914 15.9415 3.90888 14.5912C2.55862 13.241 1.80005 11.4096 1.80005 9.50005ZM5.40005 6.35005V8.15005C5.40005 8.2694 5.44746 8.38386 5.53185 8.46825C5.61624 8.55264 5.7307 8.60005 5.85005 8.60005H6.30005V10.2137L5.08145 11.4314C5.03954 11.4732 5.00629 11.5229 4.98361 11.5776C4.96092 11.6322 4.94924 11.6909 4.94924 11.75C4.94924 11.8092 4.96092 11.8678 4.98361 11.9225C5.00629 11.9772 5.03954 12.0268 5.08145 12.0686L6.43145 13.4186C6.47325 13.4606 6.52291 13.4938 6.57758 13.5165C6.63225 13.5392 6.69086 13.5509 6.75005 13.5509C6.80924 13.5509 6.86785 13.5392 6.92252 13.5165C6.97719 13.4938 7.02685 13.4606 7.06865 13.4186L8.28635 12.2H9.90005V12.65C9.90005 12.7694 9.94746 12.8839 10.0319 12.9682C10.1162 13.0526 10.2307 13.1 10.35 13.1H12.15C12.2694 13.1 12.3839 13.0526 12.4682 12.9682C12.5526 12.8839 12.6 12.7694 12.6 12.65V10.85C12.6 10.7307 12.5526 10.6162 12.4682 10.5319C12.3839 10.4475 12.2694 10.4 12.15 10.4H10.35C10.2307 10.4 10.1162 10.4475 10.0319 10.5319C9.94746 10.6162 9.90005 10.7307 9.90005 10.85V11.3H8.28635L7.20005 10.2137V8.60005H7.65005C7.7694 8.60005 7.88386 8.55264 7.96825 8.46825C8.05264 8.38386 8.10005 8.2694 8.10005 8.15005V6.35005C8.10005 6.2307 8.05264 6.11624 7.96825 6.03185C7.88386 5.94746 7.7694 5.90005 7.65005 5.90005H5.85005C5.7307 5.90005 5.61624 5.94746 5.53185 6.03185C5.44746 6.11624 5.40005 6.2307 5.40005 6.35005Z" fill="url(#paint0_linear_153_431)"/>
<path d="M1.80005 9.50005C1.80005 7.59049 2.55862 5.75914 3.90888 4.40888C5.25914 3.05862 7.09049 2.30005 9.00005 2.30005C10.9096 2.30005 12.741 3.05862 14.0912 4.40888C15.4415 5.75914 16.2 7.59049 16.2 9.50005C16.2 11.4096 15.4415 13.241 14.0912 14.5912C12.741 15.9415 10.9096 16.7 9.00005 16.7C7.09049 16.7 5.25914 15.9415 3.90888 14.5912C2.55862 13.241 1.80005 11.4096 1.80005 9.50005ZM5.40005 6.35005V8.15005C5.40005 8.2694 5.44746 8.38386 5.53185 8.46825C5.61624 8.55264 5.7307 8.60005 5.85005 8.60005H6.30005V10.2137L5.08145 11.4314C5.03954 11.4732 5.00629 11.5229 4.98361 11.5776C4.96092 11.6322 4.94924 11.6909 4.94924 11.75C4.94924 11.8092 4.96092 11.8678 4.98361 11.9225C5.00629 11.9772 5.03954 12.0268 5.08145 12.0686L6.43145 13.4186C6.47325 13.4606 6.52291 13.4938 6.57758 13.5165C6.63225 13.5392 6.69086 13.5509 6.75005 13.5509C6.80924 13.5509 6.86785 13.5392 6.92252 13.5165C6.97719 13.4938 7.02685 13.4606 7.06865 13.4186L8.28635 12.2H9.90005V12.65C9.90005 12.7694 9.94746 12.8839 10.0319 12.9682C10.1162 13.0526 10.2307 13.1 10.35 13.1H12.15C12.2694 13.1 12.3839 13.0526 12.4682 12.9682C12.5526 12.8839 12.6 12.7694 12.6 12.65V10.85C12.6 10.7307 12.5526 10.6162 12.4682 10.5319C12.3839 10.4475 12.2694 10.4 12.15 10.4H10.35C10.2307 10.4 10.1162 10.4475 10.0319 10.5319C9.94746 10.6162 9.90005 10.7307 9.90005 10.85V11.3H8.28635L7.20005 10.2137V8.60005H7.65005C7.7694 8.60005 7.88386 8.55264 7.96825 8.46825C8.05264 8.38386 8.10005 8.2694 8.10005 8.15005V6.35005C8.10005 6.2307 8.05264 6.11624 7.96825 6.03185C7.88386 5.94746 7.7694 5.90005 7.65005 5.90005H5.85005C5.7307 5.90005 5.61624 5.94746 5.53185 6.03185C5.44746 6.11624 5.40005 6.2307 5.40005 6.35005Z" fill="black" fill-opacity="0.2"/>
<defs>
<linearGradient id="paint0_linear_153_431" x1="-1.93841" y1="10.1353" x2="35.6364" y2="10.3567" gradientUnits="userSpaceOnUse">
<stop stop-color="white"/>
<stop offset="1" stop-color="#00A983"/>
</linearGradient>
</defs>
</svg>
