<svg width="38" height="38" viewBox="0 0 38 38" fill="none" xmlns="http://www.w3.org/2000/svg">
<g filter="url(#filter0_i_155_867)">
<rect width="38" height="38" rx="8" fill="black"/>
<g clip-path="url(#clip0_155_867)">
<path fill-rule="evenodd" clip-rule="evenodd" d="M27.2252 7.21582C27.5662 7.21582 27.8932 7.35128 28.1343 7.5924C28.3755 7.83352 28.5109 8.16054 28.5109 8.50153V9.83868C28.9104 9.94668 29.2909 10.1095 29.6304 10.341C30.3589 10.8347 30.8612 11.6267 30.8612 12.6192C30.8612 12.9602 30.7258 13.2873 30.4846 13.5284C30.2435 13.7695 29.9165 13.905 29.5755 13.905C29.2345 13.905 28.9075 13.7695 28.6664 13.5284C28.4252 13.2873 28.2898 12.9602 28.2898 12.6192C28.2898 12.5747 28.2812 12.561 28.2778 12.5541C28.2525 12.5201 28.2211 12.491 28.1852 12.4684C28.0378 12.3672 27.7241 12.2507 27.2252 12.2507C26.8704 12.2507 26.6166 12.2507 26.4024 12.2712C26.3292 12.2769 26.2565 12.2872 26.1846 12.3021C26.1668 12.4068 26.1588 12.513 26.1606 12.6192C26.1606 12.7512 26.1949 12.8867 26.4538 13.113C26.7589 13.3787 27.1978 13.617 27.8218 13.9427L27.8818 13.9735C28.4252 14.2598 29.1298 14.6284 29.6869 15.1135C30.3092 15.6587 30.8612 16.4455 30.8612 17.5444C30.8612 18.0758 30.7824 18.6004 30.5526 19.0701C30.3245 19.5384 29.9461 19.9168 29.4778 20.145C29.1504 20.3078 28.8126 20.385 28.5109 20.4278V21.6621C28.5109 22.0031 28.3755 22.3301 28.1343 22.5712C27.8932 22.8124 27.5662 22.9478 27.2252 22.9478C26.8842 22.9478 26.5572 22.8124 26.3161 22.5712C26.075 22.3301 25.9395 22.0031 25.9395 21.6621V20.3558C25.5603 20.2758 25.1975 20.132 24.8664 19.9307C24.0435 19.4232 23.5892 18.5798 23.5892 17.5444C23.5892 17.2034 23.7247 16.8764 23.9658 16.6353C24.2069 16.3941 24.5339 16.2587 24.8749 16.2587C25.2159 16.2587 25.5429 16.3941 25.7841 16.6353C26.0252 16.8764 26.1606 17.2034 26.1606 17.5444C26.1618 17.613 26.1658 17.6598 26.1726 17.685L26.1846 17.7192L26.2189 17.7432C26.3338 17.8152 26.6321 17.913 27.2132 17.9147H27.2372C27.5835 17.9147 27.8338 17.913 28.0464 17.8941C28.1435 17.8838 28.2161 17.873 28.2641 17.8615C28.2825 17.7568 28.2911 17.6507 28.2898 17.5444C28.2898 17.4124 28.2538 17.277 27.9949 17.0507C27.6915 16.785 27.2509 16.5467 26.6286 16.221L26.5686 16.1901C26.0235 15.9038 25.3206 15.5352 24.7635 15.0501C24.1395 14.5067 23.5892 13.7181 23.5892 12.6192C23.5892 12.0878 23.6664 11.565 23.8978 11.0935C24.1259 10.6252 24.5043 10.2468 24.9726 10.0187C25.2984 9.85753 25.6378 9.77868 25.9395 9.73582V8.50153C25.9395 8.16054 26.075 7.83352 26.3161 7.5924C26.5572 7.35128 26.8842 7.21582 27.2252 7.21582ZM13.9944 14.6507C13.9947 14.0427 13.7797 13.4543 13.3874 12.9898C12.9951 12.5253 12.451 12.2149 11.8515 12.1135V8.50325C11.8515 8.16226 11.716 7.83523 11.4749 7.59411C11.2338 7.35299 10.9068 7.21753 10.5658 7.21753C10.2248 7.21753 9.89776 7.35299 9.65664 7.59411C9.41552 7.83523 9.28006 8.16226 9.28006 8.50325V12.117C8.6806 12.2183 8.13642 12.5287 7.74413 12.9932C7.35184 13.4577 7.13681 14.0461 7.13721 14.6541V22.3684C7.13762 22.9758 7.35302 23.5634 7.74524 24.0272C8.13746 24.4909 8.68118 24.8009 9.28006 24.9021V26.6524C9.28006 26.9934 9.41552 27.3204 9.65664 27.5615C9.89776 27.8026 10.2248 27.9381 10.5658 27.9381C10.9068 27.9381 11.2338 27.8026 11.4749 27.5615C11.716 27.3204 11.8515 26.9934 11.8515 26.6524V24.9038C12.451 24.8025 12.9951 24.492 13.3874 24.0276C13.7797 23.5631 13.9947 22.9746 13.9944 22.3667V14.6507ZM17.8515 18.9707C17.252 19.072 16.7079 19.3825 16.3156 19.8469C15.9233 20.3114 15.7082 20.8999 15.7086 21.5078V24.0792C15.7082 24.6872 15.9233 25.2757 16.3156 25.7401C16.7079 26.2046 17.252 26.5151 17.8515 26.6164V29.4981C17.8515 29.8391 17.987 30.1661 18.2281 30.4072C18.4692 30.6484 18.7962 30.7838 19.1372 30.7838C19.4782 30.7838 19.8052 30.6484 20.0463 30.4072C20.2875 30.1661 20.4229 29.8391 20.4229 29.4981V26.6147C21.0221 26.5134 21.566 26.2032 21.9583 25.7391C22.3506 25.275 22.5658 24.6869 22.5658 24.0792V21.5078C22.5662 20.8999 22.3511 20.3114 21.9589 19.8469C21.5666 19.3825 21.0224 19.072 20.4229 18.9707V13.7935C20.4229 13.4525 20.2875 13.1255 20.0463 12.8844C19.8052 12.6433 19.4782 12.5078 19.1372 12.5078C18.7962 12.5078 18.4692 12.6433 18.2281 12.8844C17.987 13.1255 17.8515 13.4525 17.8515 13.7935V18.9707Z" fill="url(#paint0_linear_155_867)"/>
<path fill-rule="evenodd" clip-rule="evenodd" d="M27.2252 7.21582C27.5662 7.21582 27.8932 7.35128 28.1343 7.5924C28.3755 7.83352 28.5109 8.16054 28.5109 8.50153V9.83868C28.9104 9.94668 29.2909 10.1095 29.6304 10.341C30.3589 10.8347 30.8612 11.6267 30.8612 12.6192C30.8612 12.9602 30.7258 13.2873 30.4846 13.5284C30.2435 13.7695 29.9165 13.905 29.5755 13.905C29.2345 13.905 28.9075 13.7695 28.6664 13.5284C28.4252 13.2873 28.2898 12.9602 28.2898 12.6192C28.2898 12.5747 28.2812 12.561 28.2778 12.5541C28.2525 12.5201 28.2211 12.491 28.1852 12.4684C28.0378 12.3672 27.7241 12.2507 27.2252 12.2507C26.8704 12.2507 26.6166 12.2507 26.4024 12.2712C26.3292 12.2769 26.2565 12.2872 26.1846 12.3021C26.1668 12.4068 26.1588 12.513 26.1606 12.6192C26.1606 12.7512 26.1949 12.8867 26.4538 13.113C26.7589 13.3787 27.1978 13.617 27.8218 13.9427L27.8818 13.9735C28.4252 14.2598 29.1298 14.6284 29.6869 15.1135C30.3092 15.6587 30.8612 16.4455 30.8612 17.5444C30.8612 18.0758 30.7824 18.6004 30.5526 19.0701C30.3245 19.5384 29.9461 19.9168 29.4778 20.145C29.1504 20.3078 28.8126 20.385 28.5109 20.4278V21.6621C28.5109 22.0031 28.3755 22.3301 28.1343 22.5712C27.8932 22.8124 27.5662 22.9478 27.2252 22.9478C26.8842 22.9478 26.5572 22.8124 26.3161 22.5712C26.075 22.3301 25.9395 22.0031 25.9395 21.6621V20.3558C25.5603 20.2758 25.1975 20.132 24.8664 19.9307C24.0435 19.4232 23.5892 18.5798 23.5892 17.5444C23.5892 17.2034 23.7247 16.8764 23.9658 16.6353C24.2069 16.3941 24.5339 16.2587 24.8749 16.2587C25.2159 16.2587 25.5429 16.3941 25.7841 16.6353C26.0252 16.8764 26.1606 17.2034 26.1606 17.5444C26.1618 17.613 26.1658 17.6598 26.1726 17.685L26.1846 17.7192L26.2189 17.7432C26.3338 17.8152 26.6321 17.913 27.2132 17.9147H27.2372C27.5835 17.9147 27.8338 17.913 28.0464 17.8941C28.1435 17.8838 28.2161 17.873 28.2641 17.8615C28.2825 17.7568 28.2911 17.6507 28.2898 17.5444C28.2898 17.4124 28.2538 17.277 27.9949 17.0507C27.6915 16.785 27.2509 16.5467 26.6286 16.221L26.5686 16.1901C26.0235 15.9038 25.3206 15.5352 24.7635 15.0501C24.1395 14.5067 23.5892 13.7181 23.5892 12.6192C23.5892 12.0878 23.6664 11.565 23.8978 11.0935C24.1259 10.6252 24.5043 10.2468 24.9726 10.0187C25.2984 9.85753 25.6378 9.77868 25.9395 9.73582V8.50153C25.9395 8.16054 26.075 7.83352 26.3161 7.5924C26.5572 7.35128 26.8842 7.21582 27.2252 7.21582ZM13.9944 14.6507C13.9947 14.0427 13.7797 13.4543 13.3874 12.9898C12.9951 12.5253 12.451 12.2149 11.8515 12.1135V8.50325C11.8515 8.16226 11.716 7.83523 11.4749 7.59411C11.2338 7.35299 10.9068 7.21753 10.5658 7.21753C10.2248 7.21753 9.89776 7.35299 9.65664 7.59411C9.41552 7.83523 9.28006 8.16226 9.28006 8.50325V12.117C8.6806 12.2183 8.13642 12.5287 7.74413 12.9932C7.35184 13.4577 7.13681 14.0461 7.13721 14.6541V22.3684C7.13762 22.9758 7.35302 23.5634 7.74524 24.0272C8.13746 24.4909 8.68118 24.8009 9.28006 24.9021V26.6524C9.28006 26.9934 9.41552 27.3204 9.65664 27.5615C9.89776 27.8026 10.2248 27.9381 10.5658 27.9381C10.9068 27.9381 11.2338 27.8026 11.4749 27.5615C11.716 27.3204 11.8515 26.9934 11.8515 26.6524V24.9038C12.451 24.8025 12.9951 24.492 13.3874 24.0276C13.7797 23.5631 13.9947 22.9746 13.9944 22.3667V14.6507ZM17.8515 18.9707C17.252 19.072 16.7079 19.3825 16.3156 19.8469C15.9233 20.3114 15.7082 20.8999 15.7086 21.5078V24.0792C15.7082 24.6872 15.9233 25.2757 16.3156 25.7401C16.7079 26.2046 17.252 26.5151 17.8515 26.6164V29.4981C17.8515 29.8391 17.987 30.1661 18.2281 30.4072C18.4692 30.6484 18.7962 30.7838 19.1372 30.7838C19.4782 30.7838 19.8052 30.6484 20.0463 30.4072C20.2875 30.1661 20.4229 29.8391 20.4229 29.4981V26.6147C21.0221 26.5134 21.566 26.2032 21.9583 25.7391C22.3506 25.275 22.5658 24.6869 22.5658 24.0792V21.5078C22.5662 20.8999 22.3511 20.3114 21.9589 19.8469C21.5666 19.3825 21.0224 19.072 20.4229 18.9707V13.7935C20.4229 13.4525 20.2875 13.1255 20.0463 12.8844C19.8052 12.6433 19.4782 12.5078 19.1372 12.5078C18.7962 12.5078 18.4692 12.6433 18.2281 12.8844C17.987 13.1255 17.8515 13.4525 17.8515 13.7935V18.9707Z" fill="black" fill-opacity="0.2"/>
</g>
</g>
<defs>
<filter id="filter0_i_155_867" x="0" y="0" width="38" height="39" filterUnits="userSpaceOnUse" color-interpolation-filters="sRGB">
<feFlood flood-opacity="0" result="BackgroundImageFix"/>
<feBlend mode="normal" in="SourceGraphic" in2="BackgroundImageFix" result="shape"/>
<feColorMatrix in="SourceAlpha" type="matrix" values="0 0 0 0 0 0 0 0 0 0 0 0 0 0 0 0 0 0 127 0" result="hardAlpha"/>
<feMorphology radius="1" operator="erode" in="SourceAlpha" result="effect1_innerShadow_155_867"/>
<feOffset dy="1"/>
<feGaussianBlur stdDeviation="2"/>
<feComposite in2="hardAlpha" operator="arithmetic" k2="-1" k3="1"/>
<feColorMatrix type="matrix" values="0 0 0 0 0 0 0 0 0 0.444522 0 0 0 0 0.34457 0 0 0 0.6 0"/>
<feBlend mode="normal" in2="shape" result="effect1_innerShadow_155_867"/>
</filter>
<linearGradient id="paint0_linear_155_867" x1="0.978091" y1="20.0396" x2="62.8825" y2="20.4067" gradientUnits="userSpaceOnUse">
<stop stop-color="white"/>
<stop offset="1" stop-color="#00A983"/>
</linearGradient>
<clipPath id="clip0_155_867">
<rect width="24" height="24" fill="white" transform="translate(7 7)"/>
</clipPath>
</defs>
</svg>
