<svg width="16" height="16" viewBox="0 0 16 16" fill="none" xmlns="http://www.w3.org/2000/svg">
<path d="M9 3H3.5C3.10218 3 2.72064 3.15804 2.43934 3.43934C2.15804 3.72064 2 4.10218 2 4.5V11.5C2 11.8978 2.15804 12.2794 2.43934 12.5607C2.72064 12.842 3.10218 13 3.5 13H10.5C10.8978 13 11.2794 12.842 11.5607 12.5607C11.842 12.2794 12 11.8978 12 11.5V6M5 10L14 1M14 1H10.5M14 1V4.5" stroke="url(#paint0_linear_154_706)" stroke-linecap="round" stroke-linejoin="round"/>
<path d="M9 3H3.5C3.10218 3 2.72064 3.15804 2.43934 3.43934C2.15804 3.72064 2 4.10218 2 4.5V11.5C2 11.8978 2.15804 12.2794 2.43934 12.5607C2.72064 12.842 3.10218 13 3.5 13H10.5C10.8978 13 11.2794 12.842 11.5607 12.5607C11.842 12.2794 12 11.8978 12 11.5V6M5 10L14 1M14 1H10.5M14 1V4.5" stroke="black" stroke-opacity="0.2" stroke-linecap="round" stroke-linejoin="round"/>
<defs>
<linearGradient id="paint0_linear_154_706" x1="-1.11538" y1="7.52941" x2="30.1969" y2="7.71386" gradientUnits="userSpaceOnUse">
<stop stop-color="white"/>
<stop offset="1" stop-color="#00A983"/>
</linearGradient>
</defs>
</svg>
