<svg width="30" height="30" viewBox="0 0 30 30" fill="none" xmlns="http://www.w3.org/2000/svg">
<g clip-path="url(#clip0_157_481)">
<path d="M25.9091 0H4.09091C1.83156 0 0 1.83156 0 4.09091V25.9091C0 28.1684 1.83156 30 4.09091 30H25.9091C28.1684 30 30 28.1684 30 25.9091V4.09091C30 1.83156 28.1684 0 25.9091 0Z" fill="white"/>
<path d="M10.807 8.18182C10.807 8.68751 10.657 9.18184 10.3761 9.60231C10.0951 10.0228 9.69583 10.3505 9.22863 10.544C8.76143 10.7375 8.24734 10.7882 7.75137 10.6895C7.25539 10.5909 6.79981 10.3473 6.44224 9.98976C6.08466 9.63218 5.84114 9.1766 5.74249 8.68063C5.64383 8.18465 5.69447 7.67056 5.88799 7.20337C6.08151 6.73617 6.40922 6.33685 6.82969 6.0559C7.25015 5.77495 7.74449 5.625 8.25018 5.625C8.92829 5.625 9.57863 5.89438 10.0581 6.37387C10.5376 6.85337 10.807 7.50371 10.807 8.18182Z" fill="#00A983"/>
<path d="M10.2275 12.4432V23.7392C10.2279 23.8225 10.2119 23.9051 10.1803 23.9822C10.1487 24.0594 10.1022 24.1295 10.0435 24.1886C9.9847 24.2477 9.91483 24.2945 9.83789 24.3265C9.76094 24.3585 9.67843 24.375 9.59509 24.375H6.90021C6.81687 24.3752 6.73432 24.359 6.65729 24.3272C6.58025 24.2954 6.51026 24.2487 6.45133 24.1898C6.39241 24.1308 6.34571 24.0609 6.31393 23.9838C6.28214 23.9068 6.26589 23.8242 6.26612 23.7409V12.4432C6.26612 12.275 6.33292 12.1137 6.45184 11.9948C6.57075 11.8759 6.73204 11.8091 6.90021 11.8091H9.59509C9.76297 11.8095 9.92381 11.8765 10.0424 11.9954C10.1609 12.1143 10.2275 12.2753 10.2275 12.4432Z" fill="#00A983"/>
<path d="M24.3139 18.3239V23.792C24.3141 23.8687 24.2992 23.9446 24.27 24.0154C24.2408 24.0862 24.1979 24.1506 24.1437 24.2048C24.0895 24.2589 24.0251 24.3019 23.9543 24.3311C23.8835 24.3603 23.8076 24.3752 23.731 24.375H20.8332C20.7566 24.3752 20.6807 24.3603 20.6099 24.3311C20.5391 24.3019 20.4747 24.2589 20.4205 24.2048C20.3663 24.1506 20.3234 24.0862 20.2942 24.0154C20.265 23.9446 20.2501 23.8687 20.2503 23.792V18.4926C20.2503 17.7017 20.4821 15.029 18.1827 15.029C16.4014 15.029 16.0383 16.8579 15.9668 17.6795V23.792C15.9668 23.9452 15.9065 24.0922 15.799 24.2013C15.6915 24.3103 15.5455 24.3728 15.3923 24.375H12.5935C12.517 24.375 12.4413 24.3599 12.3706 24.3306C12.3 24.3013 12.2358 24.2583 12.1818 24.2041C12.1279 24.15 12.0851 24.0857 12.056 24.015C12.0269 23.9443 12.012 23.8685 12.0122 23.792V12.3937C12.012 12.3173 12.0269 12.2415 12.056 12.1708C12.0851 12.1001 12.1279 12.0358 12.1818 11.9816C12.2358 11.9275 12.3 11.8845 12.3706 11.8552C12.4413 11.8259 12.517 11.8108 12.5935 11.8108H15.3923C15.5469 11.8108 15.6952 11.8722 15.8045 11.9815C15.9139 12.0909 15.9753 12.2391 15.9753 12.3937V13.379C16.6366 12.3869 17.6168 11.6216 19.7082 11.6216C24.3412 11.6216 24.3139 15.9477 24.3139 18.3239Z" fill="#00A983"/>
</g>
<defs>
<clipPath id="clip0_157_481">
<rect width="30" height="30" fill="white"/>
</clipPath>
</defs>
</svg>
