<svg width="20" height="20" viewBox="0 0 20 20" fill="none" xmlns="http://www.w3.org/2000/svg">
<g clip-path="url(#clip0_156_2951)">
<path d="M17.2727 0H2.72727C1.22104 0 0 1.22104 0 2.72727V17.2727C0 18.779 1.22104 20 2.72727 20H17.2727C18.779 20 20 18.779 20 17.2727V2.72727C20 1.22104 18.779 0 17.2727 0Z" fill="white"/>
<path d="M7.2045 5.45455C7.2045 5.79167 7.10453 6.12123 6.91723 6.40154C6.72994 6.68185 6.46372 6.90033 6.15226 7.02934C5.84079 7.15835 5.49807 7.19211 5.16742 7.12634C4.83677 7.06057 4.53305 6.89823 4.29466 6.65984C4.05628 6.42146 3.89393 6.11773 3.82816 5.78709C3.76239 5.45644 3.79615 5.11371 3.92516 4.80224C4.05417 4.49078 4.27265 4.22457 4.55296 4.03727C4.83327 3.84997 5.16283 3.75 5.49996 3.75C5.95203 3.75 6.38559 3.92959 6.70525 4.24925C7.02492 4.56891 7.2045 5.00247 7.2045 5.45455Z" fill="#2B2B2B"/>
<path d="M6.81816 8.29541V15.8261C6.81846 15.8816 6.80777 15.9367 6.78672 15.9881C6.76567 16.0395 6.73466 16.0863 6.69548 16.1257C6.6563 16.1651 6.60973 16.1963 6.55843 16.2176C6.50713 16.239 6.45212 16.25 6.39657 16.25H4.59998C4.54442 16.2501 4.48938 16.2393 4.43803 16.2181C4.38667 16.1969 4.34001 16.1658 4.30073 16.1265C4.26144 16.0872 4.23031 16.0405 4.20912 15.9892C4.18793 15.9378 4.1771 15.8828 4.17725 15.8272V8.29541C4.17725 8.18329 4.22179 8.07577 4.30106 7.99649C4.38034 7.91722 4.48786 7.87268 4.59998 7.87268H6.39657C6.50848 7.87298 6.61571 7.91765 6.69474 7.9969C6.77378 8.07614 6.81816 8.18349 6.81816 8.29541Z" fill="#2B2B2B"/>
<path d="M16.209 12.2159V15.8613C16.2091 15.9124 16.1992 15.963 16.1797 16.0102C16.1602 16.0574 16.1316 16.1003 16.0955 16.1365C16.0593 16.1726 16.0164 16.2012 15.9692 16.2207C15.922 16.2402 15.8714 16.2501 15.8203 16.25H13.8885C13.8374 16.2501 13.7868 16.2402 13.7396 16.2207C13.6924 16.2012 13.6495 16.1726 13.6134 16.1365C13.5772 16.1003 13.5486 16.0574 13.5291 16.0102C13.5097 15.963 13.4997 15.9124 13.4999 15.8613V12.3284C13.4999 11.8011 13.6544 10.0193 12.1214 10.0193C10.934 10.0193 10.6919 11.2386 10.6442 11.7863V15.8613C10.6442 15.9634 10.604 16.0614 10.5324 16.1341C10.4607 16.2069 10.3633 16.2485 10.2612 16.25H8.39531C8.34433 16.25 8.29385 16.2399 8.24676 16.2203C8.19967 16.2008 8.15691 16.1722 8.12091 16.1361C8.08491 16.1 8.05639 16.0571 8.03698 16.01C8.01758 15.9628 8.00766 15.9123 8.00781 15.8613V8.26245C8.00766 8.21147 8.01758 8.16096 8.03698 8.11381C8.05639 8.06667 8.08491 8.02382 8.12091 7.98771C8.15691 7.95161 8.19967 7.92297 8.24676 7.90342C8.29385 7.88388 8.34433 7.87382 8.39531 7.87382H10.2612C10.3643 7.87382 10.4631 7.91476 10.536 7.98765C10.6089 8.06053 10.6499 8.15938 10.6499 8.26245V8.91927C11.0908 8.25791 11.7442 7.74768 13.1385 7.74768C16.2271 7.74768 16.209 10.6318 16.209 12.2159Z" fill="#2B2B2B"/>
</g>
<defs>
<clipPath id="clip0_156_2951">
<rect width="20" height="20" fill="white"/>
</clipPath>
</defs>
</svg>
