<svg width="20" height="20" viewBox="0 0 20 20" fill="none" xmlns="http://www.w3.org/2000/svg">
<g clip-path="url(#clip0_157_499)">
<path d="M17.2727 0H2.72727C1.22104 0 0 1.22104 0 2.72727V17.2727C0 18.779 1.22104 20 2.72727 20H17.2727C18.779 20 20 18.779 20 17.2727V2.72727C20 1.22104 18.779 0 17.2727 0Z" fill="white"/>
<path d="M7.2045 5.45455C7.2045 5.79167 7.10453 6.12123 6.91723 6.40154C6.72994 6.68185 6.46372 6.90033 6.15226 7.02934C5.84079 7.15835 5.49807 7.19211 5.16742 7.12634C4.83677 7.06057 4.53305 6.89823 4.29466 6.65984C4.05628 6.42146 3.89393 6.11773 3.82816 5.78709C3.76239 5.45644 3.79615 5.11371 3.92516 4.80224C4.05417 4.49078 4.27265 4.22457 4.55296 4.03727C4.83327 3.84997 5.16283 3.75 5.49996 3.75C5.95203 3.75 6.38559 3.92959 6.70525 4.24925C7.02492 4.56891 7.2045 5.00247 7.2045 5.45455Z" fill="#2B2B2B"/>
<path d="M6.81816 8.29553V15.8262C6.81846 15.8818 6.80777 15.9368 6.78672 15.9882C6.76567 16.0397 6.73466 16.0864 6.69548 16.1258C6.6563 16.1652 6.60973 16.1964 6.55843 16.2178C6.50713 16.2391 6.45212 16.2501 6.39657 16.2501H4.59998C4.54442 16.2502 4.48938 16.2394 4.43803 16.2182C4.38667 16.197 4.34001 16.1659 4.30073 16.1266C4.26144 16.0873 4.23031 16.0407 4.20912 15.9893C4.18793 15.9379 4.1771 15.8829 4.17725 15.8273V8.29553C4.17725 8.18342 4.22179 8.07589 4.30106 7.99662C4.38034 7.91734 4.48786 7.8728 4.59998 7.8728H6.39657C6.50848 7.8731 6.61571 7.91777 6.69474 7.99702C6.77378 8.07626 6.81816 8.18361 6.81816 8.29553Z" fill="#2B2B2B"/>
<path d="M16.209 12.216V15.8614C16.2091 15.9125 16.1992 15.9631 16.1797 16.0103C16.1602 16.0576 16.1316 16.1005 16.0955 16.1366C16.0593 16.1727 16.0164 16.2013 15.9692 16.2208C15.922 16.2403 15.8714 16.2502 15.8203 16.2501H13.8885C13.8374 16.2502 13.7868 16.2403 13.7396 16.2208C13.6924 16.2013 13.6495 16.1727 13.6134 16.1366C13.5772 16.1005 13.5486 16.0576 13.5291 16.0103C13.5097 15.9631 13.4997 15.9125 13.4999 15.8614V12.3285C13.4999 11.8012 13.6544 10.0194 12.1214 10.0194C10.934 10.0194 10.6919 11.2387 10.6442 11.7864V15.8614C10.6442 15.9635 10.604 16.0615 10.5324 16.1343C10.4607 16.207 10.3633 16.2486 10.2612 16.2501H8.39531C8.34433 16.2501 8.29385 16.24 8.24676 16.2205C8.19967 16.2009 8.15691 16.1723 8.12091 16.1362C8.08491 16.1001 8.05639 16.0572 8.03698 16.0101C8.01758 15.9629 8.00766 15.9124 8.00781 15.8614V8.26258C8.00766 8.21159 8.01758 8.16108 8.03698 8.11394C8.05639 8.06679 8.08491 8.02394 8.12091 7.98784C8.15691 7.95173 8.19967 7.92309 8.24676 7.90354C8.29385 7.884 8.34433 7.87394 8.39531 7.87394H10.2612C10.3643 7.87394 10.4631 7.91488 10.536 7.98777C10.6089 8.06065 10.6499 8.1595 10.6499 8.26258V8.91939C11.0908 8.25803 11.7442 7.7478 13.1385 7.7478C16.2271 7.7478 16.209 10.6319 16.209 12.216Z" fill="#2B2B2B"/>
</g>
<defs>
<clipPath id="clip0_157_499">
<rect width="20" height="20" fill="white"/>
</clipPath>
</defs>
</svg>
