<svg width="18" height="19" viewBox="0 0 18 19" fill="none" xmlns="http://www.w3.org/2000/svg">
<path d="M3 17V12.5562C3 12.3062 3.0595 12.0687 3.1785 11.8437C3.2975 11.6187 3.463 11.4375 3.675 11.3L4.5 10.7562C4.5875 11.8062 4.725 12.7 4.9125 13.4375C5.1 14.175 5.39375 14.9937 5.79375 15.8937L3 17ZM6.91875 15.5C6.48125 14.675 6.15625 13.8 5.94375 12.875C5.73125 11.95 5.625 10.9937 5.625 10.0062C5.625 8.4437 5.9345 6.97195 6.5535 5.59095C7.1725 4.20995 7.988 3.16295 9 2.44995C10.0125 3.16245 10.8282 4.20945 11.4472 5.59095C12.0662 6.97245 12.3755 8.4442 12.375 10.0062C12.375 10.9812 12.2687 11.9282 12.0562 12.8472C11.8437 13.7662 11.5187 14.6505 11.0812 15.5H6.91875ZM9 10.25C9.4125 10.25 9.76575 10.1032 10.0597 9.8097C10.3537 9.5162 10.5005 9.16295 10.5 8.74995C10.4995 8.33695 10.3527 7.98395 10.0597 7.69095C9.76675 7.39795 9.4135 7.25095 9 7.24995C8.5865 7.24895 8.2335 7.39595 7.941 7.69095C7.6485 7.98595 7.5015 8.33895 7.5 8.74995C7.4985 9.16095 7.6455 9.5142 7.941 9.8097C8.2365 10.1052 8.5895 10.252 9 10.25ZM15 17L12.2062 15.8937C12.6062 14.9937 12.9 14.175 13.0875 13.4375C13.275 12.7 13.4125 11.8062 13.5 10.7562L14.325 11.3C14.5375 11.4375 14.7032 11.6187 14.8222 11.8437C14.9412 12.0687 15.0005 12.3062 15 12.5562V17Z" fill="url(#paint0_linear_153_472)"/>
<path d="M3 17V12.5562C3 12.3062 3.0595 12.0687 3.1785 11.8437C3.2975 11.6187 3.463 11.4375 3.675 11.3L4.5 10.7562C4.5875 11.8062 4.725 12.7 4.9125 13.4375C5.1 14.175 5.39375 14.9937 5.79375 15.8937L3 17ZM6.91875 15.5C6.48125 14.675 6.15625 13.8 5.94375 12.875C5.73125 11.95 5.625 10.9937 5.625 10.0062C5.625 8.4437 5.9345 6.97195 6.5535 5.59095C7.1725 4.20995 7.988 3.16295 9 2.44995C10.0125 3.16245 10.8282 4.20945 11.4472 5.59095C12.0662 6.97245 12.3755 8.4442 12.375 10.0062C12.375 10.9812 12.2687 11.9282 12.0562 12.8472C11.8437 13.7662 11.5187 14.6505 11.0812 15.5H6.91875ZM9 10.25C9.4125 10.25 9.76575 10.1032 10.0597 9.8097C10.3537 9.5162 10.5005 9.16295 10.5 8.74995C10.4995 8.33695 10.3527 7.98395 10.0597 7.69095C9.76675 7.39795 9.4135 7.25095 9 7.24995C8.5865 7.24895 8.2335 7.39595 7.941 7.69095C7.6485 7.98595 7.5015 8.33895 7.5 8.74995C7.4985 9.16095 7.6455 9.5142 7.941 9.8097C8.2365 10.1052 8.5895 10.252 9 10.25ZM15 17L12.2062 15.8937C12.6062 14.9937 12.9 14.175 13.0875 13.4375C13.275 12.7 13.4125 11.8062 13.5 10.7562L14.325 11.3C14.5375 11.4375 14.7032 11.6187 14.8222 11.8437C14.9412 12.0687 15.0005 12.3062 15 12.5562V17Z" fill="black" fill-opacity="0.2"/>
<defs>
<linearGradient id="paint0_linear_153_472" x1="-0.115385" y1="10.3669" x2="31.1973" y2="10.519" gradientUnits="userSpaceOnUse">
<stop stop-color="white"/>
<stop offset="1" stop-color="#00A983"/>
</linearGradient>
</defs>
</svg>
