<svg width="18" height="19" viewBox="0 0 18 19" fill="none" xmlns="http://www.w3.org/2000/svg">
<path d="M9 3.5C11.0903 3.5 12.9472 4.44275 14.2695 5.60975C14.9332 6.1955 15.48 6.85325 15.8655 7.508C16.2442 8.15075 16.5 8.8475 16.5 9.5C16.5 10.1525 16.245 10.8493 15.8655 11.492C15.48 12.1468 14.9332 12.8045 14.2695 13.3903C12.9472 14.5573 11.0895 15.5 9 15.5C6.90975 15.5 5.05275 14.5573 3.7305 13.3903C3.06675 12.8045 2.52 12.1468 2.1345 11.492C1.755 10.8493 1.5 10.1525 1.5 9.5C1.5 8.8475 1.755 8.15075 2.1345 7.508C2.52 6.85325 3.06675 6.1955 3.7305 5.60975C5.05275 4.44275 6.9105 3.5 9 3.5ZM9 5C7.362 5 5.844 5.74475 4.7235 6.734C4.1655 7.226 3.7245 7.76375 3.42675 8.26925C3.12225 8.78675 3 9.215 3 9.5C3 9.785 3.12225 10.2132 3.42675 10.7308C3.7245 11.2362 4.1655 11.7732 4.7235 12.266C5.844 13.2552 7.362 14 9 14C10.638 14 12.156 13.2552 13.2765 12.266C13.8345 11.7732 14.2755 11.2362 14.5732 10.7308C14.8777 10.2132 15 9.785 15 9.5C15 9.215 14.8777 8.78675 14.5732 8.26925C14.2755 7.76375 13.8345 7.22675 13.2765 6.734C12.156 5.74475 10.638 5 9 5ZM9 7.25C9.066 7.25 9.13125 7.25275 9.19575 7.25825C9.03291 7.54389 8.96844 7.87512 9.01225 8.20098C9.05606 8.52685 9.20572 8.82929 9.43822 9.06178C9.67071 9.29428 9.97315 9.44394 10.299 9.48775C10.6249 9.53156 10.9561 9.46709 11.2418 9.30425C11.2812 9.75588 11.1833 10.2089 10.9609 10.6039C10.7384 10.9989 10.4019 11.3176 9.99526 11.518C9.58865 11.7185 9.13096 11.7915 8.68217 11.7274C8.23338 11.6633 7.81441 11.4651 7.48018 11.1589C7.14594 10.8526 6.91202 10.4525 6.80907 10.011C6.70612 9.56946 6.73893 9.10716 6.90322 8.68463C7.06751 8.2621 7.3556 7.89905 7.72975 7.64305C8.1039 7.38706 8.54665 7.25006 9 7.25Z" fill="url(#paint0_linear_156_3707)"/>
<path d="M9 3.5C11.0903 3.5 12.9472 4.44275 14.2695 5.60975C14.9332 6.1955 15.48 6.85325 15.8655 7.508C16.2442 8.15075 16.5 8.8475 16.5 9.5C16.5 10.1525 16.245 10.8493 15.8655 11.492C15.48 12.1468 14.9332 12.8045 14.2695 13.3903C12.9472 14.5573 11.0895 15.5 9 15.5C6.90975 15.5 5.05275 14.5573 3.7305 13.3903C3.06675 12.8045 2.52 12.1468 2.1345 11.492C1.755 10.8493 1.5 10.1525 1.5 9.5C1.5 8.8475 1.755 8.15075 2.1345 7.508C2.52 6.85325 3.06675 6.1955 3.7305 5.60975C5.05275 4.44275 6.9105 3.5 9 3.5ZM9 5C7.362 5 5.844 5.74475 4.7235 6.734C4.1655 7.226 3.7245 7.76375 3.42675 8.26925C3.12225 8.78675 3 9.215 3 9.5C3 9.785 3.12225 10.2132 3.42675 10.7308C3.7245 11.2362 4.1655 11.7732 4.7235 12.266C5.844 13.2552 7.362 14 9 14C10.638 14 12.156 13.2552 13.2765 12.266C13.8345 11.7732 14.2755 11.2362 14.5732 10.7308C14.8777 10.2132 15 9.785 15 9.5C15 9.215 14.8777 8.78675 14.5732 8.26925C14.2755 7.76375 13.8345 7.22675 13.2765 6.734C12.156 5.74475 10.638 5 9 5ZM9 7.25C9.066 7.25 9.13125 7.25275 9.19575 7.25825C9.03291 7.54389 8.96844 7.87512 9.01225 8.20098C9.05606 8.52685 9.20572 8.82929 9.43822 9.06178C9.67071 9.29428 9.97315 9.44394 10.299 9.48775C10.6249 9.53156 10.9561 9.46709 11.2418 9.30425C11.2812 9.75588 11.1833 10.2089 10.9609 10.6039C10.7384 10.9989 10.4019 11.3176 9.99526 11.518C9.58865 11.7185 9.13096 11.7915 8.68217 11.7274C8.23338 11.6633 7.81441 11.4651 7.48018 11.1589C7.14594 10.8526 6.91202 10.4525 6.80907 10.011C6.70612 9.56946 6.73893 9.10716 6.90322 8.68463C7.06751 8.2621 7.3556 7.89905 7.72975 7.64305C8.1039 7.38706 8.54665 7.25006 9 7.25Z" fill="black" fill-opacity="0.2"/>
<defs>
<linearGradient id="paint0_linear_156_3707" x1="-2.39423" y1="10.0294" x2="36.7454" y2="10.3176" gradientUnits="userSpaceOnUse">
<stop stop-color="white"/>
<stop offset="1" stop-color="#00A983"/>
</linearGradient>
</defs>
</svg>
