<svg width="18" height="19" viewBox="0 0 18 19" fill="none" xmlns="http://www.w3.org/2000/svg">
<path d="M16.3123 16.7752C16.2998 16.6306 16.2331 16.496 16.1255 16.3985C16.0179 16.3011 15.8774 16.248 15.7322 16.25H12.8627L12.4198 13.1478L12.6476 13.2821C12.7749 13.3571 12.9158 13.4063 13.0621 13.4268C13.2084 13.4474 13.3574 13.4389 13.5004 13.4019C13.6435 13.3649 13.7779 13.3 13.8959 13.2111C14.0139 13.1221 14.1132 13.0108 14.1881 12.8834L15.0185 11.4772C15.1648 11.235 15.2176 10.9476 15.1669 10.6693C15.1368 10.5126 15.0735 10.3641 14.9814 10.2339C14.8892 10.1037 14.7703 9.99462 14.6325 9.91411L10.4714 7.4609C10.3452 7.38893 10.2509 7.27186 10.2075 7.1332C10.164 6.99455 10.1747 6.8446 10.2373 6.71348C10.2719 6.64465 10.3202 6.58365 10.3794 6.53428C10.4385 6.4849 10.5071 6.4482 10.581 6.42645C10.6549 6.40469 10.7325 6.39835 10.809 6.40781C10.8854 6.41727 10.9591 6.44234 11.0255 6.48145L12.4985 7.3484C12.5627 7.38643 12.6393 7.39743 12.7116 7.37897C12.7838 7.36051 12.8458 7.31411 12.8838 7.24996L15.0319 3.60075C15.107 3.47339 15.1563 3.33248 15.1769 3.18607C15.1975 3.03966 15.1891 2.89062 15.152 2.74748C15.115 2.60434 15.0501 2.4699 14.9611 2.35185C14.8721 2.2338 14.7607 2.13445 14.6332 2.0595L13.2031 1.21575C13.0757 1.14074 12.9349 1.09155 12.7885 1.071C12.6422 1.05044 12.4932 1.05891 12.3502 1.09594C12.2071 1.13296 12.0728 1.1978 11.9548 1.28677C11.8368 1.37573 11.7375 1.48707 11.6625 1.61442L9.20157 5.79239C9.16106 5.86122 9.10636 5.92063 9.04111 5.96668C8.97586 6.01273 8.90155 6.04435 8.82313 6.05945C8.74471 6.07455 8.66397 6.07278 8.58628 6.05425C8.5086 6.03572 8.43575 6.00087 8.37258 5.952C8.26466 5.86532 8.19184 5.74244 8.16766 5.60614C8.14348 5.46985 8.16957 5.32941 8.2411 5.2109L9.10102 3.74981C9.13837 3.68544 9.14868 3.6089 9.1297 3.53694C9.11073 3.46498 9.064 3.40348 8.99977 3.3659L5.35196 1.21856C5.22464 1.14355 5.08378 1.09437 4.93745 1.07381C4.79111 1.05325 4.64216 1.06173 4.49909 1.09875C4.35603 1.13577 4.22167 1.20062 4.10367 1.28958C3.98568 1.37854 3.88637 1.48988 3.81141 1.61723L2.98102 3.02348C2.83469 3.26541 2.78192 3.55252 2.83266 3.83067C2.86302 3.98735 2.92637 4.13579 3.01851 4.26611C3.11064 4.39643 3.22945 4.50565 3.36704 4.58653L7.52883 7.03903C7.65136 7.1087 7.74395 7.22103 7.78895 7.3546C7.83395 7.48818 7.82821 7.63364 7.77282 7.76325C7.74045 7.83544 7.69321 7.89999 7.6342 7.95268C7.57519 8.00538 7.50572 8.04503 7.43034 8.06905C7.35496 8.09307 7.27535 8.10092 7.19673 8.09209C7.11811 8.08325 7.04224 8.05793 6.97407 8.01778L5.49751 7.15012C5.4335 7.11332 5.35759 7.10316 5.28616 7.12184C5.21473 7.14052 5.1535 7.18654 5.11571 7.24996L2.96766 10.8992C2.89266 11.0265 2.84347 11.1674 2.82291 11.3137C2.80236 11.46 2.81083 11.609 2.84785 11.752C2.88488 11.8951 2.94972 12.0295 3.03868 12.1475C3.12764 12.2655 3.23898 12.3648 3.36633 12.4397L4.79649 13.2835C5.01984 13.4173 5.28359 13.4672 5.5404 13.4241L5.1368 16.25H2.26876C2.12335 16.2477 1.98248 16.3006 1.87456 16.398C1.76664 16.4955 1.69971 16.6303 1.68727 16.7752C1.68216 16.8521 1.69293 16.9293 1.7189 17.0019C1.74487 17.0745 1.78549 17.141 1.83825 17.1973C1.891 17.2535 1.95475 17.2983 2.02554 17.3289C2.09634 17.3594 2.17266 17.3751 2.24977 17.375H15.7498C15.8269 17.3751 15.9032 17.3594 15.974 17.3289C16.0448 17.2983 16.1085 17.2535 16.1613 17.1973C16.214 17.141 16.2547 17.0745 16.2806 17.0019C16.3066 16.9293 16.3174 16.8521 16.3123 16.7752ZM6.27305 16.25L6.8904 11.9468L7.78829 10.4211L8.78883 8.72161C8.86079 8.59556 8.97774 8.50139 9.11623 8.45796C9.25472 8.41454 9.40451 8.42508 9.53555 8.48746C9.60438 8.52205 9.66538 8.57041 9.71475 8.62955C9.76413 8.68868 9.80083 8.75732 9.82258 8.83122C9.84434 8.90512 9.85068 8.9827 9.84122 9.05915C9.83176 9.13561 9.8067 9.2093 9.76758 9.27567L8.90063 10.7522C8.86294 10.8165 8.85229 10.8931 8.87101 10.9652C8.88973 11.0373 8.93629 11.099 9.00047 11.1368L11.1802 12.42L11.7265 16.25H6.27305Z" fill="url(#paint0_linear_153_456)"/>
<path d="M16.3123 16.7752C16.2998 16.6306 16.2331 16.496 16.1255 16.3985C16.0179 16.3011 15.8774 16.248 15.7322 16.25H12.8627L12.4198 13.1478L12.6476 13.2821C12.7749 13.3571 12.9158 13.4063 13.0621 13.4268C13.2084 13.4474 13.3574 13.4389 13.5004 13.4019C13.6435 13.3649 13.7779 13.3 13.8959 13.2111C14.0139 13.1221 14.1132 13.0108 14.1881 12.8834L15.0185 11.4772C15.1648 11.235 15.2176 10.9476 15.1669 10.6693C15.1368 10.5126 15.0735 10.3641 14.9814 10.2339C14.8892 10.1037 14.7703 9.99462 14.6325 9.91411L10.4714 7.4609C10.3452 7.38893 10.2509 7.27186 10.2075 7.1332C10.164 6.99455 10.1747 6.8446 10.2373 6.71348C10.2719 6.64465 10.3202 6.58365 10.3794 6.53428C10.4385 6.4849 10.5071 6.4482 10.581 6.42645C10.6549 6.40469 10.7325 6.39835 10.809 6.40781C10.8854 6.41727 10.9591 6.44234 11.0255 6.48145L12.4985 7.3484C12.5627 7.38643 12.6393 7.39743 12.7116 7.37897C12.7838 7.36051 12.8458 7.31411 12.8838 7.24996L15.0319 3.60075C15.107 3.47339 15.1563 3.33248 15.1769 3.18607C15.1975 3.03966 15.1891 2.89062 15.152 2.74748C15.115 2.60434 15.0501 2.4699 14.9611 2.35185C14.8721 2.2338 14.7607 2.13445 14.6332 2.0595L13.2031 1.21575C13.0757 1.14074 12.9349 1.09155 12.7885 1.071C12.6422 1.05044 12.4932 1.05891 12.3502 1.09594C12.2071 1.13296 12.0728 1.1978 11.9548 1.28677C11.8368 1.37573 11.7375 1.48707 11.6625 1.61442L9.20157 5.79239C9.16106 5.86122 9.10636 5.92063 9.04111 5.96668C8.97586 6.01273 8.90155 6.04435 8.82313 6.05945C8.74471 6.07455 8.66397 6.07278 8.58628 6.05425C8.5086 6.03572 8.43575 6.00087 8.37258 5.952C8.26466 5.86532 8.19184 5.74244 8.16766 5.60614C8.14348 5.46985 8.16957 5.32941 8.2411 5.2109L9.10102 3.74981C9.13837 3.68544 9.14868 3.6089 9.1297 3.53694C9.11073 3.46498 9.064 3.40348 8.99977 3.3659L5.35196 1.21856C5.22464 1.14355 5.08378 1.09437 4.93745 1.07381C4.79111 1.05325 4.64216 1.06173 4.49909 1.09875C4.35603 1.13577 4.22167 1.20062 4.10367 1.28958C3.98568 1.37854 3.88637 1.48988 3.81141 1.61723L2.98102 3.02348C2.83469 3.26541 2.78192 3.55252 2.83266 3.83067C2.86302 3.98735 2.92637 4.13579 3.01851 4.26611C3.11064 4.39643 3.22945 4.50565 3.36704 4.58653L7.52883 7.03903C7.65136 7.1087 7.74395 7.22103 7.78895 7.3546C7.83395 7.48818 7.82821 7.63364 7.77282 7.76325C7.74045 7.83544 7.69321 7.89999 7.6342 7.95268C7.57519 8.00538 7.50572 8.04503 7.43034 8.06905C7.35496 8.09307 7.27535 8.10092 7.19673 8.09209C7.11811 8.08325 7.04224 8.05793 6.97407 8.01778L5.49751 7.15012C5.4335 7.11332 5.35759 7.10316 5.28616 7.12184C5.21473 7.14052 5.1535 7.18654 5.11571 7.24996L2.96766 10.8992C2.89266 11.0265 2.84347 11.1674 2.82291 11.3137C2.80236 11.46 2.81083 11.609 2.84785 11.752C2.88488 11.8951 2.94972 12.0295 3.03868 12.1475C3.12764 12.2655 3.23898 12.3648 3.36633 12.4397L4.79649 13.2835C5.01984 13.4173 5.28359 13.4672 5.5404 13.4241L5.1368 16.25H2.26876C2.12335 16.2477 1.98248 16.3006 1.87456 16.398C1.76664 16.4955 1.69971 16.6303 1.68727 16.7752C1.68216 16.8521 1.69293 16.9293 1.7189 17.0019C1.74487 17.0745 1.78549 17.141 1.83825 17.1973C1.891 17.2535 1.95475 17.2983 2.02554 17.3289C2.09634 17.3594 2.17266 17.3751 2.24977 17.375H15.7498C15.8269 17.3751 15.9032 17.3594 15.974 17.3289C16.0448 17.2983 16.1085 17.2535 16.1613 17.1973C16.214 17.141 16.2547 17.0745 16.2806 17.0019C16.3066 16.9293 16.3174 16.8521 16.3123 16.7752ZM6.27305 16.25L6.8904 11.9468L7.78829 10.4211L8.78883 8.72161C8.86079 8.59556 8.97774 8.50139 9.11623 8.45796C9.25472 8.41454 9.40451 8.42508 9.53555 8.48746C9.60438 8.52205 9.66538 8.57041 9.71475 8.62955C9.76413 8.68868 9.80083 8.75732 9.82258 8.83122C9.84434 8.90512 9.85068 8.9827 9.84122 9.05915C9.83176 9.13561 9.8067 9.2093 9.76758 9.27567L8.90063 10.7522C8.86294 10.8165 8.85229 10.8931 8.87101 10.9652C8.88973 11.0373 8.93629 11.099 9.00047 11.1368L11.1802 12.42L11.7265 16.25H6.27305Z" fill="black" fill-opacity="0.2"/>
<defs>
<linearGradient id="paint0_linear_153_456" x1="-2.11148" y1="9.93729" x2="36.0571" y2="10.1389" gradientUnits="userSpaceOnUse">
<stop stop-color="white"/>
<stop offset="1" stop-color="#00A983"/>
</linearGradient>
</defs>
</svg>
