<svg width="18" height="19" viewBox="0 0 18 19" fill="none" xmlns="http://www.w3.org/2000/svg">
<path d="M15 10.8125C15 10.6633 14.9407 10.5202 14.8352 10.4148C14.7298 10.3093 14.5867 10.25 14.4375 10.25H12.1875C12.0383 10.25 11.8952 10.3093 11.7898 10.4148C11.6843 10.5202 11.625 10.6633 11.625 10.8125V15.875H10.5V3.6875C10.5 3.1415 10.4985 2.7875 10.464 2.528C10.431 2.28425 10.3777 2.20775 10.335 2.165C10.2922 2.12225 10.2157 2.069 9.972 2.036C9.71175 2.0015 9.3585 2 8.8125 2C8.2665 2 7.9125 2.0015 7.653 2.036C7.40925 2.069 7.33275 2.12225 7.29 2.165C7.24725 2.20775 7.194 2.28425 7.161 2.528C7.1265 2.78825 7.125 3.1415 7.125 3.6875V15.875H6V7.0625C6 6.91332 5.94074 6.77024 5.83525 6.66475C5.72976 6.55926 5.58668 6.5 5.4375 6.5H3.1875C3.03832 6.5 2.89524 6.55926 2.78975 6.66475C2.68426 6.77024 2.625 6.91332 2.625 7.0625V15.875H1.3125C1.16332 15.875 1.02024 15.9343 0.914752 16.0398C0.809263 16.1452 0.75 16.2883 0.75 16.4375C0.75 16.5867 0.809263 16.7298 0.914752 16.8352C1.02024 16.9407 1.16332 17 1.3125 17H16.3125C16.4617 17 16.6048 16.9407 16.7102 16.8352C16.8157 16.7298 16.875 16.5867 16.875 16.4375C16.875 16.2883 16.8157 16.1452 16.7102 16.0398C16.6048 15.9343 16.4617 15.875 16.3125 15.875H15V10.8125Z" fill="url(#paint0_linear_153_443)"/>
<path d="M15 10.8125C15 10.6633 14.9407 10.5202 14.8352 10.4148C14.7298 10.3093 14.5867 10.25 14.4375 10.25H12.1875C12.0383 10.25 11.8952 10.3093 11.7898 10.4148C11.6843 10.5202 11.625 10.6633 11.625 10.8125V15.875H10.5V3.6875C10.5 3.1415 10.4985 2.7875 10.464 2.528C10.431 2.28425 10.3777 2.20775 10.335 2.165C10.2922 2.12225 10.2157 2.069 9.972 2.036C9.71175 2.0015 9.3585 2 8.8125 2C8.2665 2 7.9125 2.0015 7.653 2.036C7.40925 2.069 7.33275 2.12225 7.29 2.165C7.24725 2.20775 7.194 2.28425 7.161 2.528C7.1265 2.78825 7.125 3.1415 7.125 3.6875V15.875H6V7.0625C6 6.91332 5.94074 6.77024 5.83525 6.66475C5.72976 6.55926 5.58668 6.5 5.4375 6.5H3.1875C3.03832 6.5 2.89524 6.55926 2.78975 6.66475C2.68426 6.77024 2.625 6.91332 2.625 7.0625V15.875H1.3125C1.16332 15.875 1.02024 15.9343 0.914752 16.0398C0.809263 16.1452 0.75 16.2883 0.75 16.4375C0.75 16.5867 0.809263 16.7298 0.914752 16.8352C1.02024 16.9407 1.16332 17 1.3125 17H16.3125C16.4617 17 16.6048 16.9407 16.7102 16.8352C16.8157 16.7298 16.875 16.5867 16.875 16.4375C16.875 16.2883 16.8157 16.1452 16.7102 16.0398C16.6048 15.9343 16.4617 15.875 16.3125 15.875H15V10.8125Z" fill="black" fill-opacity="0.2"/>
<defs>
<linearGradient id="paint0_linear_153_443" x1="-3.4363" y1="10.1618" x2="38.6394" y2="10.4282" gradientUnits="userSpaceOnUse">
<stop stop-color="white"/>
<stop offset="1" stop-color="#00A983"/>
</linearGradient>
</defs>
</svg>
