<svg width="20" height="21" viewBox="0 0 20 21" fill="none" xmlns="http://www.w3.org/2000/svg">
<path d="M9.16658 3.83341C7.7001 4.03721 6.3413 4.71753 5.2995 5.76955C4.25769 6.82158 3.59068 8.18695 3.40121 9.65536C3.21174 11.1238 3.51032 12.6137 4.25096 13.8957C4.99159 15.1778 6.1332 16.1807 7.49992 16.7501M4.16658 17.1667L7.49992 17.1667L7.49992 13.8334M10.8333 17.1667C12.2997 16.9629 13.6585 16.2826 14.7003 15.2306C15.7421 14.1786 16.4092 12.8132 16.5986 11.3448C16.7881 9.8764 16.4895 8.38643 15.7489 7.10442C15.0082 5.8224 13.8666 4.81946 12.4999 4.25008M15.8333 3.83341L12.4999 3.83341L12.4999 7.16675" stroke="#00A983" stroke-width="1.66667" stroke-linecap="round" stroke-linejoin="round"/>
</svg>
