<svg width="20" height="20" viewBox="0 0 20 20" fill="none" xmlns="http://www.w3.org/2000/svg">
<g clip-path="url(#clip0_156_2948)">
<path d="M10.6689 9.65857L15.1696 16.0962H13.3225L9.64982 10.8431V10.8428L9.11061 10.0716L4.82031 3.93469H6.66742L10.1297 8.88742L10.6689 9.65857Z" fill="white"/>
<path d="M17.839 0H2.16104C0.967563 0 0 0.967563 0 2.16104V17.839C0 19.0324 0.967563 20 2.16104 20H17.839C19.0324 20 20 19.0324 20 17.839V2.16104C20 0.967563 19.0324 0 17.839 0ZM12.7566 16.9604L9.0401 11.5514L4.38696 16.9604H3.18435L8.50611 10.7746L3.18435 3.02934H7.24336L10.7627 8.15126L15.1689 3.02934H16.3715L11.2968 8.92828H11.2965L16.8156 16.9604H12.7566Z" fill="white"/>
</g>
<defs>
<clipPath id="clip0_156_2948">
<rect width="20" height="20" fill="white"/>
</clipPath>
</defs>
</svg>
