<svg width="38" height="38" viewBox="0 0 38 38" fill="none" xmlns="http://www.w3.org/2000/svg">
<g filter="url(#filter0_i_155_848)">
<rect width="38" height="38" rx="8" fill="black"/>
<path d="M13 29C12.45 29 11.9793 28.8043 11.588 28.413C11.1967 28.0217 11.0007 27.5507 11 27V17C11 16.45 11.196 15.9793 11.588 15.588C11.98 15.1967 12.4507 15.0007 13 15H14V13C14 11.6167 14.4877 10.4377 15.463 9.463C16.4383 8.48833 17.6173 8.00067 19 8C20.3827 7.99933 21.562 8.487 22.538 9.463C23.514 10.439 24.0013 11.618 24 13V15H25C25.55 15 26.021 15.196 26.413 15.588C26.805 15.98 27.0007 16.4507 27 17V27C27 27.55 26.8043 28.021 26.413 28.413C26.0217 28.805 25.5507 29.0007 25 29H13ZM19 24C19.55 24 20.021 23.8043 20.413 23.413C20.805 23.0217 21.0007 22.5507 21 22C20.9993 21.4493 20.8037 20.9787 20.413 20.588C20.0223 20.1973 19.5513 20.0013 19 20C18.4487 19.9987 17.978 20.1947 17.588 20.588C17.198 20.9813 17.002 21.452 17 22C16.998 22.548 17.194 23.019 17.588 23.413C17.982 23.807 18.4527 24.0027 19 24ZM16 15H22V13C22 12.1667 21.7083 11.4583 21.125 10.875C20.5417 10.2917 19.8333 10 19 10C18.1667 10 17.4583 10.2917 16.875 10.875C16.2917 11.4583 16 12.1667 16 13V15Z" fill="url(#paint0_linear_155_848)"/>
<path d="M13 29C12.45 29 11.9793 28.8043 11.588 28.413C11.1967 28.0217 11.0007 27.5507 11 27V17C11 16.45 11.196 15.9793 11.588 15.588C11.98 15.1967 12.4507 15.0007 13 15H14V13C14 11.6167 14.4877 10.4377 15.463 9.463C16.4383 8.48833 17.6173 8.00067 19 8C20.3827 7.99933 21.562 8.487 22.538 9.463C23.514 10.439 24.0013 11.618 24 13V15H25C25.55 15 26.021 15.196 26.413 15.588C26.805 15.98 27.0007 16.4507 27 17V27C27 27.55 26.8043 28.021 26.413 28.413C26.0217 28.805 25.5507 29.0007 25 29H13ZM19 24C19.55 24 20.021 23.8043 20.413 23.413C20.805 23.0217 21.0007 22.5507 21 22C20.9993 21.4493 20.8037 20.9787 20.413 20.588C20.0223 20.1973 19.5513 20.0013 19 20C18.4487 19.9987 17.978 20.1947 17.588 20.588C17.198 20.9813 17.002 21.452 17 22C16.998 22.548 17.194 23.019 17.588 23.413C17.982 23.807 18.4527 24.0027 19 24ZM16 15H22V13C22 12.1667 21.7083 11.4583 21.125 10.875C20.5417 10.2917 19.8333 10 19 10C18.1667 10 17.4583 10.2917 16.875 10.875C16.2917 11.4583 16 12.1667 16 13V15Z" fill="black" fill-opacity="0.2"/>
</g>
<defs>
<filter id="filter0_i_155_848" x="0" y="0" width="38" height="39" filterUnits="userSpaceOnUse" color-interpolation-filters="sRGB">
<feFlood flood-opacity="0" result="BackgroundImageFix"/>
<feBlend mode="normal" in="SourceGraphic" in2="BackgroundImageFix" result="shape"/>
<feColorMatrix in="SourceAlpha" type="matrix" values="0 0 0 0 0 0 0 0 0 0 0 0 0 0 0 0 0 0 127 0" result="hardAlpha"/>
<feMorphology radius="1" operator="erode" in="SourceAlpha" result="effect1_innerShadow_155_848"/>
<feOffset dy="1"/>
<feGaussianBlur stdDeviation="2"/>
<feComposite in2="hardAlpha" operator="arithmetic" k2="-1" k3="1"/>
<feColorMatrix type="matrix" values="0 0 0 0 0 0 0 0 0 0.444522 0 0 0 0 0.34457 0 0 0 0.6 0"/>
<feBlend mode="normal" in2="shape" result="effect1_innerShadow_155_848"/>
</filter>
<linearGradient id="paint0_linear_155_848" x1="6.84615" y1="19.4265" x2="48.5965" y2="19.6139" gradientUnits="userSpaceOnUse">
<stop stop-color="white"/>
<stop offset="1" stop-color="#00A983"/>
</linearGradient>
</defs>
</svg>
