<svg width="38" height="38" viewBox="0 0 38 38" fill="none" xmlns="http://www.w3.org/2000/svg">
<g filter="url(#filter0_i_155_829)">
<rect width="38" height="38" rx="8" fill="black"/>
<path d="M27.625 9.625C27.5359 9.625 27.4445 9.64141 27.3531 9.67891L13.8437 15.107H10C9.79375 15.107 9.625 15.2805 9.625 15.4961V22.5039C9.625 22.7195 9.79375 22.893 10 22.893H12.3812C12.2945 23.1648 12.25 23.4531 12.25 23.7461C12.25 25.2906 13.5109 26.5469 15.0625 26.5469C16.3609 26.5469 17.4555 25.6656 17.7789 24.475L27.3555 28.3234C27.4469 28.3586 27.5383 28.3773 27.6273 28.3773C28.0234 28.3773 28.3773 28.0445 28.3773 27.5992V10.4031C28.375 9.95781 28.0234 9.625 27.625 9.625ZM15.0625 24.8664C14.4414 24.8664 13.9375 24.3648 13.9375 23.7461C13.9375 23.4836 14.0289 23.2328 14.1953 23.0336L16.1852 23.8328C16.1383 24.4094 15.6531 24.8664 15.0625 24.8664Z" fill="url(#paint0_linear_155_829)"/>
<path d="M27.625 9.625C27.5359 9.625 27.4445 9.64141 27.3531 9.67891L13.8437 15.107H10C9.79375 15.107 9.625 15.2805 9.625 15.4961V22.5039C9.625 22.7195 9.79375 22.893 10 22.893H12.3812C12.2945 23.1648 12.25 23.4531 12.25 23.7461C12.25 25.2906 13.5109 26.5469 15.0625 26.5469C16.3609 26.5469 17.4555 25.6656 17.7789 24.475L27.3555 28.3234C27.4469 28.3586 27.5383 28.3773 27.6273 28.3773C28.0234 28.3773 28.3773 28.0445 28.3773 27.5992V10.4031C28.375 9.95781 28.0234 9.625 27.625 9.625ZM15.0625 24.8664C14.4414 24.8664 13.9375 24.3648 13.9375 23.7461C13.9375 23.4836 14.0289 23.2328 14.1953 23.0336L16.1852 23.8328C16.1383 24.4094 15.6531 24.8664 15.0625 24.8664Z" fill="black" fill-opacity="0.2"/>
</g>
<defs>
<filter id="filter0_i_155_829" x="0" y="0" width="38" height="39" filterUnits="userSpaceOnUse" color-interpolation-filters="sRGB">
<feFlood flood-opacity="0" result="BackgroundImageFix"/>
<feBlend mode="normal" in="SourceGraphic" in2="BackgroundImageFix" result="shape"/>
<feColorMatrix in="SourceAlpha" type="matrix" values="0 0 0 0 0 0 0 0 0 0 0 0 0 0 0 0 0 0 127 0" result="hardAlpha"/>
<feMorphology radius="1" operator="erode" in="SourceAlpha" result="effect1_innerShadow_155_829"/>
<feOffset dy="1"/>
<feGaussianBlur stdDeviation="2"/>
<feComposite in2="hardAlpha" operator="arithmetic" k2="-1" k3="1"/>
<feColorMatrix type="matrix" values="0 0 0 0 0 0 0 0 0 0.444522 0 0 0 0 0.34457 0 0 0 0.6 0"/>
<feBlend mode="normal" in2="shape" result="effect1_innerShadow_155_829"/>
</filter>
<linearGradient id="paint0_linear_155_829" x1="4.7566" y1="19.8285" x2="53.6882" y2="20.1167" gradientUnits="userSpaceOnUse">
<stop stop-color="white"/>
<stop offset="1" stop-color="#00A983"/>
</linearGradient>
</defs>
</svg>
