<svg width="15" height="14" viewBox="0 0 15 14" fill="none" xmlns="http://www.w3.org/2000/svg">
<g clip-path="url(#clip0_156_1145)">
<path d="M10.0855 7.77485L10.4483 5.38602H8.17889V3.8365C8.17889 3.1828 8.49533 2.54524 9.51177 2.54524H10.5442V0.511505C10.5442 0.511505 9.60766 0.350098 8.71268 0.350098C6.84282 0.350098 5.62181 1.49448 5.62181 3.56534V5.38602H3.54419V7.77485H5.62181V13.55C6.03894 13.6162 6.46565 13.6501 6.90035 13.6501C7.33506 13.6501 7.76177 13.6162 8.17889 13.55V7.77485H10.0855Z" fill="url(#paint0_linear_156_1145)"/>
<path d="M10.0855 7.77485L10.4483 5.38602H8.17889V3.8365C8.17889 3.1828 8.49533 2.54524 9.51177 2.54524H10.5442V0.511505C10.5442 0.511505 9.60766 0.350098 8.71268 0.350098C6.84282 0.350098 5.62181 1.49448 5.62181 3.56534V5.38602H3.54419V7.77485H5.62181V13.55C6.03894 13.6162 6.46565 13.6501 6.90035 13.6501C7.33506 13.6501 7.76177 13.6162 8.17889 13.55V7.77485H10.0855Z" fill="black" fill-opacity="0.2"/>
</g>
<defs>
<linearGradient id="paint0_linear_156_1145" x1="1.72688" y1="7.58686" x2="19.9929" y2="7.64349" gradientUnits="userSpaceOnUse">
<stop stop-color="white"/>
<stop offset="1" stop-color="#00A983"/>
</linearGradient>
<clipPath id="clip0_156_1145">
<rect width="14" height="14" fill="white" transform="translate(0.0441895)"/>
</clipPath>
</defs>
</svg>
