<svg width="15" height="14" viewBox="0 0 15 14" fill="none" xmlns="http://www.w3.org/2000/svg">
<g clip-path="url(#clip0_156_1149)">
<path d="M7.04419 1.26161C8.91438 1.26161 9.13391 1.26995 9.8731 1.30329C10.5567 1.33386 10.9263 1.4478 11.1736 1.54506C11.5015 1.67289 11.7349 1.82295 11.9795 2.06749C12.224 2.31203 12.3769 2.54545 12.5019 2.87336C12.5964 3.12068 12.7131 3.49027 12.7437 4.17388C12.777 4.91306 12.7854 5.13259 12.7854 7.00278C12.7854 8.87296 12.777 9.09249 12.7437 9.83168C12.7131 10.5153 12.5992 10.8849 12.5019 11.1322C12.3741 11.4601 12.224 11.6935 11.9795 11.9381C11.7349 12.1826 11.5015 12.3354 11.1736 12.4605C10.9263 12.555 10.5567 12.6717 9.8731 12.7023C9.13391 12.7356 8.91438 12.7439 7.04419 12.7439C5.17401 12.7439 4.95447 12.7356 4.21529 12.7023C3.53169 12.6717 3.1621 12.5578 2.91477 12.4605C2.58687 12.3327 2.35344 12.1826 2.1089 11.9381C1.86436 11.6935 1.71152 11.4601 1.58647 11.1322C1.49199 10.8849 1.37527 10.5153 1.34471 9.83168C1.31136 9.09249 1.30302 8.87296 1.30302 7.00278C1.30302 5.13259 1.31136 4.91306 1.34471 4.17388C1.37527 3.49027 1.48921 3.12068 1.58647 2.87336C1.7143 2.54545 1.86436 2.31203 2.1089 2.06749C2.35344 1.82295 2.58687 1.67011 2.91477 1.54506C3.1621 1.45058 3.53169 1.33386 4.21529 1.30329C4.95447 1.26717 5.17678 1.26161 7.04419 1.26161ZM7.04419 0C5.14344 0 4.90445 0.00833664 4.15694 0.0416832C3.41219 0.0750298 2.90366 0.194522 2.45904 0.366812C1.99774 0.54466 1.6087 0.786423 1.21966 1.17547C0.830613 1.56451 0.591629 1.95633 0.411002 2.41485C0.238711 2.85947 0.119219 3.368 0.0858727 4.11552C0.0525261 4.86026 0.0441895 5.09924 0.0441895 7C0.0441895 8.90075 0.0525261 9.13974 0.0858727 9.88725C0.119219 10.632 0.238711 11.1405 0.411002 11.5879C0.58885 12.0492 0.830613 12.4383 1.21966 12.8273C1.6087 13.2164 2.00052 13.4553 2.45904 13.636C2.90366 13.8083 3.41219 13.9277 4.15971 13.9611C4.90723 13.9944 5.14344 14.0028 7.04697 14.0028C8.95051 14.0028 9.18671 13.9944 9.93423 13.9611C10.679 13.9277 11.1875 13.8083 11.6349 13.636C12.0962 13.4581 12.4852 13.2164 12.8743 12.8273C13.2633 12.4383 13.5023 12.0464 13.6829 11.5879C13.8552 11.1433 13.9747 10.6348 14.0081 9.88725C14.0414 9.13974 14.0498 8.90353 14.0498 7C14.0498 5.09647 14.0414 4.86026 14.0081 4.11274C13.9747 3.368 13.8552 2.85947 13.6829 2.41207C13.5051 1.95077 13.2633 1.56173 12.8743 1.17269C12.4852 0.783644 12.0934 0.54466 11.6349 0.364033C11.1903 0.191743 10.6818 0.0722509 9.93423 0.0389043C9.18393 0.00833664 8.94495 0 7.04419 0Z" fill="url(#paint0_linear_156_1149)"/>
<path d="M7.04419 1.26161C8.91438 1.26161 9.13391 1.26995 9.8731 1.30329C10.5567 1.33386 10.9263 1.4478 11.1736 1.54506C11.5015 1.67289 11.7349 1.82295 11.9795 2.06749C12.224 2.31203 12.3769 2.54545 12.5019 2.87336C12.5964 3.12068 12.7131 3.49027 12.7437 4.17388C12.777 4.91306 12.7854 5.13259 12.7854 7.00278C12.7854 8.87296 12.777 9.09249 12.7437 9.83168C12.7131 10.5153 12.5992 10.8849 12.5019 11.1322C12.3741 11.4601 12.224 11.6935 11.9795 11.9381C11.7349 12.1826 11.5015 12.3354 11.1736 12.4605C10.9263 12.555 10.5567 12.6717 9.8731 12.7023C9.13391 12.7356 8.91438 12.7439 7.04419 12.7439C5.17401 12.7439 4.95447 12.7356 4.21529 12.7023C3.53169 12.6717 3.1621 12.5578 2.91477 12.4605C2.58687 12.3327 2.35344 12.1826 2.1089 11.9381C1.86436 11.6935 1.71152 11.4601 1.58647 11.1322C1.49199 10.8849 1.37527 10.5153 1.34471 9.83168C1.31136 9.09249 1.30302 8.87296 1.30302 7.00278C1.30302 5.13259 1.31136 4.91306 1.34471 4.17388C1.37527 3.49027 1.48921 3.12068 1.58647 2.87336C1.7143 2.54545 1.86436 2.31203 2.1089 2.06749C2.35344 1.82295 2.58687 1.67011 2.91477 1.54506C3.1621 1.45058 3.53169 1.33386 4.21529 1.30329C4.95447 1.26717 5.17678 1.26161 7.04419 1.26161ZM7.04419 0C5.14344 0 4.90445 0.00833664 4.15694 0.0416832C3.41219 0.0750298 2.90366 0.194522 2.45904 0.366812C1.99774 0.54466 1.6087 0.786423 1.21966 1.17547C0.830613 1.56451 0.591629 1.95633 0.411002 2.41485C0.238711 2.85947 0.119219 3.368 0.0858727 4.11552C0.0525261 4.86026 0.0441895 5.09924 0.0441895 7C0.0441895 8.90075 0.0525261 9.13974 0.0858727 9.88725C0.119219 10.632 0.238711 11.1405 0.411002 11.5879C0.58885 12.0492 0.830613 12.4383 1.21966 12.8273C1.6087 13.2164 2.00052 13.4553 2.45904 13.636C2.90366 13.8083 3.41219 13.9277 4.15971 13.9611C4.90723 13.9944 5.14344 14.0028 7.04697 14.0028C8.95051 14.0028 9.18671 13.9944 9.93423 13.9611C10.679 13.9277 11.1875 13.8083 11.6349 13.636C12.0962 13.4581 12.4852 13.2164 12.8743 12.8273C13.2633 12.4383 13.5023 12.0464 13.6829 11.5879C13.8552 11.1433 13.9747 10.6348 14.0081 9.88725C14.0414 9.13974 14.0498 8.90353 14.0498 7C14.0498 5.09647 14.0414 4.86026 14.0081 4.11274C13.9747 3.368 13.8552 2.85947 13.6829 2.41207C13.5051 1.95077 13.2633 1.56173 12.8743 1.17269C12.4852 0.783644 12.0934 0.54466 11.6349 0.364033C11.1903 0.191743 10.6818 0.0722509 9.93423 0.0389043C9.18393 0.00833664 8.94495 0 7.04419 0Z" fill="black" fill-opacity="0.2"/>
<path d="M7.04419 1.26161C8.91438 1.26161 9.13391 1.26995 9.8731 1.30329C10.5567 1.33386 10.9263 1.4478 11.1736 1.54506C11.5015 1.67289 11.7349 1.82295 11.9795 2.06749C12.224 2.31203 12.3769 2.54545 12.5019 2.87336C12.5964 3.12068 12.7131 3.49027 12.7437 4.17388C12.777 4.91306 12.7854 5.13259 12.7854 7.00278C12.7854 8.87296 12.777 9.09249 12.7437 9.83168C12.7131 10.5153 12.5992 10.8849 12.5019 11.1322C12.3741 11.4601 12.224 11.6935 11.9795 11.9381C11.7349 12.1826 11.5015 12.3354 11.1736 12.4605C10.9263 12.555 10.5567 12.6717 9.8731 12.7023C9.13391 12.7356 8.91438 12.7439 7.04419 12.7439C5.17401 12.7439 4.95447 12.7356 4.21529 12.7023C3.53169 12.6717 3.1621 12.5578 2.91477 12.4605C2.58687 12.3327 2.35344 12.1826 2.1089 11.9381C1.86436 11.6935 1.71152 11.4601 1.58647 11.1322C1.49199 10.8849 1.37527 10.5153 1.34471 9.83168C1.31136 9.09249 1.30302 8.87296 1.30302 7.00278C1.30302 5.13259 1.31136 4.91306 1.34471 4.17388C1.37527 3.49027 1.48921 3.12068 1.58647 2.87336C1.7143 2.54545 1.86436 2.31203 2.1089 2.06749C2.35344 1.82295 2.58687 1.67011 2.91477 1.54506C3.1621 1.45058 3.53169 1.33386 4.21529 1.30329C4.95447 1.26717 5.17678 1.26161 7.04419 1.26161Z" fill="url(#paint1_linear_156_1149)"/>
<path d="M7.04419 1.26161C8.91438 1.26161 9.13391 1.26995 9.8731 1.30329C10.5567 1.33386 10.9263 1.4478 11.1736 1.54506C11.5015 1.67289 11.7349 1.82295 11.9795 2.06749C12.224 2.31203 12.3769 2.54545 12.5019 2.87336C12.5964 3.12068 12.7131 3.49027 12.7437 4.17388C12.777 4.91306 12.7854 5.13259 12.7854 7.00278C12.7854 8.87296 12.777 9.09249 12.7437 9.83168C12.7131 10.5153 12.5992 10.8849 12.5019 11.1322C12.3741 11.4601 12.224 11.6935 11.9795 11.9381C11.7349 12.1826 11.5015 12.3354 11.1736 12.4605C10.9263 12.555 10.5567 12.6717 9.8731 12.7023C9.13391 12.7356 8.91438 12.7439 7.04419 12.7439C5.17401 12.7439 4.95447 12.7356 4.21529 12.7023C3.53169 12.6717 3.1621 12.5578 2.91477 12.4605C2.58687 12.3327 2.35344 12.1826 2.1089 11.9381C1.86436 11.6935 1.71152 11.4601 1.58647 11.1322C1.49199 10.8849 1.37527 10.5153 1.34471 9.83168C1.31136 9.09249 1.30302 8.87296 1.30302 7.00278C1.30302 5.13259 1.31136 4.91306 1.34471 4.17388C1.37527 3.49027 1.48921 3.12068 1.58647 2.87336C1.7143 2.54545 1.86436 2.31203 2.1089 2.06749C2.35344 1.82295 2.58687 1.67011 2.91477 1.54506C3.1621 1.45058 3.53169 1.33386 4.21529 1.30329C4.95447 1.26717 5.17678 1.26161 7.04419 1.26161Z" fill="black" fill-opacity="0.2"/>
<path d="M7.04411 3.40674C5.05999 3.40674 3.44824 5.01571 3.44824 7.00261C3.44824 8.98951 5.05721 10.5985 7.04411 10.5985C9.03101 10.5985 10.64 8.98951 10.64 7.00261C10.64 5.01571 9.03101 3.40674 7.04411 3.40674ZM7.04411 9.33409C5.75471 9.33409 4.70985 8.28923 4.70985 6.99983C4.70985 5.71043 5.75471 4.66557 7.04411 4.66557C8.33351 4.66557 9.37837 5.71043 9.37837 6.99983C9.37837 8.28923 8.33351 9.33409 7.04411 9.33409Z" fill="#191919"/>
<path d="M10.7818 4.1013C11.2453 4.1013 11.6211 3.72556 11.6211 3.26207C11.6211 2.79858 11.2453 2.42285 10.7818 2.42285C10.3184 2.42285 9.94263 2.79858 9.94263 3.26207C9.94263 3.72556 10.3184 4.1013 10.7818 4.1013Z" fill="#191919"/>
</g>
<defs>
<linearGradient id="paint0_linear_156_1149" x1="-3.59187" y1="7.61916" x2="32.9537" y2="7.83447" gradientUnits="userSpaceOnUse">
<stop stop-color="white"/>
<stop offset="1" stop-color="#00A983"/>
</linearGradient>
<linearGradient id="paint1_linear_156_1149" x1="-3.59187" y1="7.61916" x2="32.9537" y2="7.83447" gradientUnits="userSpaceOnUse">
<stop stop-color="white"/>
<stop offset="1" stop-color="#00A983"/>
</linearGradient>
<clipPath id="clip0_156_1149">
<rect width="14" height="14" fill="white" transform="translate(0.0441895)"/>
</clipPath>
</defs>
</svg>
