<svg width="15" height="14" viewBox="0 0 15 14" fill="none" xmlns="http://www.w3.org/2000/svg">
<g clip-path="url(#clip0_156_1151)">
<path d="M13.0107 0H1.07766C0.803568 0 0.5407 0.108884 0.346887 0.302697C0.153073 0.496511 0.0441895 0.759378 0.0441895 1.03347V12.9665C0.0441895 13.2406 0.153073 13.5035 0.346887 13.6973C0.5407 13.8911 0.803568 14 1.07766 14H13.0107C13.2848 14 13.5477 13.8911 13.7415 13.6973C13.9353 13.5035 14.0442 13.2406 14.0442 12.9665V1.03347C14.0442 0.759378 13.9353 0.496511 13.7415 0.302697C13.5477 0.108884 13.2848 0 13.0107 0ZM4.21697 11.9262H2.11211V5.24028H4.21697V11.9262ZM3.16308 4.31375C2.92432 4.31241 2.69131 4.24036 2.49345 4.10672C2.2956 3.97307 2.14176 3.78381 2.05137 3.56282C1.96097 3.34183 1.93807 3.09901 1.98554 2.86501C2.03301 2.63102 2.14874 2.41633 2.31811 2.24804C2.48749 2.07975 2.70291 1.96541 2.93721 1.91944C3.17151 1.87346 3.41417 1.89793 3.63458 1.98974C3.85498 2.08155 4.04325 2.2366 4.17563 2.43531C4.308 2.63402 4.37854 2.86749 4.37836 3.10625C4.38061 3.2661 4.35065 3.42477 4.29028 3.5728C4.2299 3.72083 4.14035 3.85519 4.02694 3.96787C3.91353 4.08055 3.7786 4.16925 3.63019 4.22867C3.48177 4.28809 3.32291 4.31703 3.16308 4.31375ZM11.9753 11.9321H9.87141V8.27944C9.87141 7.20222 9.4135 6.86972 8.82238 6.86972C8.19822 6.86972 7.58572 7.34028 7.58572 8.30667V11.9321H5.48085V5.24514H7.50502V6.17167H7.53224C7.73544 5.76042 8.44711 5.0575 9.53308 5.0575C10.7075 5.0575 11.9763 5.75458 11.9763 7.79625L11.9753 11.9321Z" fill="url(#paint0_linear_156_1151)"/>
<path d="M13.0107 0H1.07766C0.803568 0 0.5407 0.108884 0.346887 0.302697C0.153073 0.496511 0.0441895 0.759378 0.0441895 1.03347V12.9665C0.0441895 13.2406 0.153073 13.5035 0.346887 13.6973C0.5407 13.8911 0.803568 14 1.07766 14H13.0107C13.2848 14 13.5477 13.8911 13.7415 13.6973C13.9353 13.5035 14.0442 13.2406 14.0442 12.9665V1.03347C14.0442 0.759378 13.9353 0.496511 13.7415 0.302697C13.5477 0.108884 13.2848 0 13.0107 0ZM4.21697 11.9262H2.11211V5.24028H4.21697V11.9262ZM3.16308 4.31375C2.92432 4.31241 2.69131 4.24036 2.49345 4.10672C2.2956 3.97307 2.14176 3.78381 2.05137 3.56282C1.96097 3.34183 1.93807 3.09901 1.98554 2.86501C2.03301 2.63102 2.14874 2.41633 2.31811 2.24804C2.48749 2.07975 2.70291 1.96541 2.93721 1.91944C3.17151 1.87346 3.41417 1.89793 3.63458 1.98974C3.85498 2.08155 4.04325 2.2366 4.17563 2.43531C4.308 2.63402 4.37854 2.86749 4.37836 3.10625C4.38061 3.2661 4.35065 3.42477 4.29028 3.5728C4.2299 3.72083 4.14035 3.85519 4.02694 3.96787C3.91353 4.08055 3.7786 4.16925 3.63019 4.22867C3.48177 4.28809 3.32291 4.31703 3.16308 4.31375ZM11.9753 11.9321H9.87141V8.27944C9.87141 7.20222 9.4135 6.86972 8.82238 6.86972C8.19822 6.86972 7.58572 7.34028 7.58572 8.30667V11.9321H5.48085V5.24514H7.50502V6.17167H7.53224C7.73544 5.76042 8.44711 5.0575 9.53308 5.0575C10.7075 5.0575 11.9763 5.75458 11.9763 7.79625L11.9753 11.9321Z" fill="black" fill-opacity="0.2"/>
</g>
<defs>
<linearGradient id="paint0_linear_156_1151" x1="-3.59043" y1="7.61765" x2="32.9406" y2="7.83283" gradientUnits="userSpaceOnUse">
<stop stop-color="white"/>
<stop offset="1" stop-color="#00A983"/>
</linearGradient>
<clipPath id="clip0_156_1151">
<rect width="14" height="14" fill="white" transform="translate(0.0441895)"/>
</clipPath>
</defs>
</svg>
