<svg width="15" height="14" viewBox="0 0 15 14" fill="none" xmlns="http://www.w3.org/2000/svg">
<g clip-path="url(#clip0_156_1147)">
<path d="M12.3276 4.18868C12.333 4.31188 12.333 4.42948 12.333 4.55268C12.3384 8.28789 9.59408 12.5999 4.57552 12.5999C3.09534 12.5999 1.64217 12.1575 0.394287 11.3287C0.610372 11.3567 0.826456 11.3679 1.04254 11.3679C2.26882 11.3679 3.46269 10.9423 4.42966 10.1527C3.26281 10.1303 2.23641 9.34069 1.87987 8.18709C2.29043 8.27109 2.71179 8.25429 3.11155 8.13669C1.84205 7.87909 0.929096 6.71988 0.923694 5.37028C0.923694 5.35908 0.923694 5.34788 0.923694 5.33668C1.30184 5.55508 1.72861 5.67828 2.16078 5.68948C0.966911 4.86068 0.594165 3.20867 1.31805 1.91507C2.70639 3.68467 4.74839 4.75428 6.94165 4.87188C6.72016 3.89187 7.02268 2.86147 7.73035 2.16707C8.82698 1.09747 10.5557 1.15347 11.5929 2.29027C12.2033 2.16707 12.7921 1.93187 13.3269 1.60147C13.1217 2.25667 12.6949 2.81107 12.1277 3.16387C12.6679 3.09667 13.1973 2.94547 13.6943 2.72147C13.3269 3.29267 12.8624 3.78547 12.3276 4.18868Z" fill="url(#paint0_linear_156_1147)"/>
<path d="M12.3276 4.18868C12.333 4.31188 12.333 4.42948 12.333 4.55268C12.3384 8.28789 9.59408 12.5999 4.57552 12.5999C3.09534 12.5999 1.64217 12.1575 0.394287 11.3287C0.610372 11.3567 0.826456 11.3679 1.04254 11.3679C2.26882 11.3679 3.46269 10.9423 4.42966 10.1527C3.26281 10.1303 2.23641 9.34069 1.87987 8.18709C2.29043 8.27109 2.71179 8.25429 3.11155 8.13669C1.84205 7.87909 0.929096 6.71988 0.923694 5.37028C0.923694 5.35908 0.923694 5.34788 0.923694 5.33668C1.30184 5.55508 1.72861 5.67828 2.16078 5.68948C0.966911 4.86068 0.594165 3.20867 1.31805 1.91507C2.70639 3.68467 4.74839 4.75428 6.94165 4.87188C6.72016 3.89187 7.02268 2.86147 7.73035 2.16707C8.82698 1.09747 10.5557 1.15347 11.5929 2.29027C12.2033 2.16707 12.7921 1.93187 13.3269 1.60147C13.1217 2.25667 12.6949 2.81107 12.1277 3.16387C12.6679 3.09667 13.1973 2.94547 13.6943 2.72147C13.3269 3.29267 12.8624 3.78547 12.3276 4.18868Z" fill="black" fill-opacity="0.2"/>
</g>
<defs>
<linearGradient id="paint0_linear_156_1147" x1="-3.0586" y1="7.49402" x2="31.6454" y2="7.73677" gradientUnits="userSpaceOnUse">
<stop stop-color="white"/>
<stop offset="1" stop-color="#00A983"/>
</linearGradient>
<clipPath id="clip0_156_1147">
<rect width="14" height="14" fill="white" transform="translate(0.0441895)"/>
</clipPath>
</defs>
</svg>
