<svg width="15" height="14" viewBox="0 0 15 14" fill="none" xmlns="http://www.w3.org/2000/svg">
<g clip-path="url(#clip0_156_1153)">
<path d="M13.7558 3.63386C13.5944 3.0342 13.1216 2.56138 12.5219 2.39993C11.4263 2.1001 7.04416 2.1001 7.04416 2.1001C7.04416 2.1001 2.66197 2.1001 1.56642 2.3884C0.978287 2.54985 0.49394 3.0342 0.332491 3.63386C0.0441895 4.72941 0.0441895 7.00123 0.0441895 7.00123C0.0441895 7.00123 0.0441895 9.28458 0.332491 10.3686C0.49394 10.9683 0.966755 11.4411 1.56642 11.6025C2.6735 11.9024 7.04416 11.9024 7.04416 11.9024C7.04416 11.9024 11.4263 11.9024 12.5219 11.6141C13.1216 11.4526 13.5944 10.9798 13.7558 10.3801C14.0441 9.28458 14.0441 7.01276 14.0441 7.01276C14.0441 7.01276 14.0557 4.72941 13.7558 3.63386Z" fill="url(#paint0_linear_156_1153)"/>
<path d="M13.7558 3.63386C13.5944 3.0342 13.1216 2.56138 12.5219 2.39993C11.4263 2.1001 7.04416 2.1001 7.04416 2.1001C7.04416 2.1001 2.66197 2.1001 1.56642 2.3884C0.978287 2.54985 0.49394 3.0342 0.332491 3.63386C0.0441895 4.72941 0.0441895 7.00123 0.0441895 7.00123C0.0441895 7.00123 0.0441895 9.28458 0.332491 10.3686C0.49394 10.9683 0.966755 11.4411 1.56642 11.6025C2.6735 11.9024 7.04416 11.9024 7.04416 11.9024C7.04416 11.9024 11.4263 11.9024 12.5219 11.6141C13.1216 11.4526 13.5944 10.9798 13.7558 10.3801C14.0441 9.28458 14.0441 7.01276 14.0441 7.01276C14.0441 7.01276 14.0557 4.72941 13.7558 3.63386Z" fill="black" fill-opacity="0.2"/>
<path d="M5.64868 9.10002L9.29282 7.00118L5.64868 4.90234V9.10002Z" fill="#191919"/>
</g>
<defs>
<linearGradient id="paint0_linear_156_1153" x1="-3.59043" y1="7.43368" x2="32.9393" y2="7.74101" gradientUnits="userSpaceOnUse">
<stop stop-color="white"/>
<stop offset="1" stop-color="#00A983"/>
</linearGradient>
<clipPath id="clip0_156_1153">
<rect width="14" height="14" fill="white" transform="translate(0.0441895)"/>
</clipPath>
</defs>
</svg>
