<svg width="12" height="20" viewBox="0 0 12 20" fill="none" xmlns="http://www.w3.org/2000/svg">
<path d="M5.625 16.25C5.275 16.25 5 15.975 5 15.625V4.375C5 4.025 5.275 3.75 5.625 3.75C5.975 3.75 6.25 4.025 6.25 4.375V15.625C6.25 15.975 5.975 16.25 5.625 16.25Z" fill="#C40000"/>
<path d="M5.625 17.5C5.54303 17.501 5.46176 17.4849 5.38641 17.4526C5.31106 17.4203 5.24331 17.3726 5.1875 17.3125L0.8125 12.9375C0.5625 12.6875 0.5625 12.3 0.8125 12.05C1.0625 11.8 1.45 11.8 1.7 12.05L5.6375 15.9875L9.575 12.05C9.825 11.8 10.2125 11.8 10.4625 12.05C10.7125 12.3 10.7125 12.6875 10.4625 12.9375L6.0875 17.3125C5.9625 17.4375 5.8 17.5 5.65 17.5H5.625Z" fill="#C40000"/>
</svg>
