<svg width="43" height="43" viewBox="0 0 43 43" fill="none" xmlns="http://www.w3.org/2000/svg">
<path d="M42.8835 21.5004C42.8835 33.312 33.3086 42.8872 21.4971 42.8872C9.68545 42.8872 0.110352 33.312 0.110352 21.5004C0.110352 9.68887 9.68545 0.11377 21.4971 0.11377C33.3084 0.11377 42.8835 9.68887 42.8835 21.5004Z" fill="white"/>
<path fill-rule="evenodd" clip-rule="evenodd" d="M18.2083 15.8455H12.3286V17.743H18.2083V15.8455ZM13.2769 24.5745H27.0657C29.0193 24.5551 30.5934 26.1111 30.6312 28.0661C30.6312 30.0017 28.9622 31.5957 27.0466 31.5957H13.2769V24.5745Z" fill="#014655"/>
<path fill-rule="evenodd" clip-rule="evenodd" d="M21.4893 0C9.61601 0 0 9.62082 0 21.5C0 33.3792 9.61601 43 21.4893 43C33.3625 43 42.9785 33.3792 42.9785 21.5C42.9974 9.62082 33.3623 0 21.4893 0ZM22.1911 9.58298H32.4331V11.6704H24.467V17.7427H30.3467V15.8455H26.1739V13.7576H32.6226V19.8301H22.1911V9.58298ZM16.8802 9.77283H10.4317V12.2395H16.8802V9.77283ZM10.242 13.7578H18.3976V9.58298H20.6727V19.8301H10.242V13.7578ZM10.4317 34.2521H27.5396V34.2519C30.8586 34.2519 33.5712 31.4627 33.5712 28.0848C33.5712 24.7069 30.859 21.9175 27.5398 21.9175H10.4317V34.2521Z" fill="#014655"/>
<path d="M10.4316 9.77271H16.8801V12.2394H10.4316V9.77271Z" fill="#C39145"/>
</svg>
