<svg width="43" height="43" viewBox="0 0 43 43" fill="none" xmlns="http://www.w3.org/2000/svg">
<path opacity="0.2" d="M21.5 43C33.3741 43 43 33.3741 43 21.5C43 9.62588 33.3741 0 21.5 0C9.62588 0 0 9.62588 0 21.5C0 33.3741 9.62588 43 21.5 43Z" fill="#505050"/>
<mask id="mask0_122_3565" style="mask-type:luminance" maskUnits="userSpaceOnUse" x="0" y="0" width="43" height="43">
<path d="M21.5 43C33.3741 43 43 33.3741 43 21.5C43 9.62588 33.3741 0 21.5 0C9.62588 0 0 9.62588 0 21.5C0 33.3741 9.62588 43 21.5 43Z" fill="white"/>
</mask>
<g mask="url(#mask0_122_3565)">
<path fill-rule="evenodd" clip-rule="evenodd" d="M11.0199 15.3953C12.4329 14.5777 13.9121 13.9373 15.468 13.4742C17.5876 12.8444 19.7389 12.5481 21.9485 12.5904C22.9752 12.6116 24.6846 12.7783 24.973 12.8894C24.9836 12.9106 24.9624 12.9238 24.9386 12.9238C24.8407 12.9688 24.7296 13.0006 24.629 13.0455C22.8085 13.8076 21.5172 15.4086 21.1414 17.3508C21.0858 17.671 21.0541 17.9912 21.0435 18.3114C21.0329 18.7983 20.9879 19.2825 20.845 19.7562C20.3581 21.4682 18.9583 22.8019 17.2251 23.2015C14.9494 23.7175 12.6525 22.5929 11.6602 20.4839C11.6047 20.3622 11.5623 20.2404 11.5385 20.1187C11.3718 19.4016 11.2527 18.6845 11.1628 17.9541C11.0648 17.1497 11.0093 16.3426 11.0093 15.5382C11.0199 15.4826 11.0199 15.4509 11.0199 15.3953Z" fill="#F7A800"/>
<path fill-rule="evenodd" clip-rule="evenodd" d="M27.2679 28.6281C27.289 28.4191 27.3129 28.2312 27.3234 28.0327C27.379 26.9399 27.1461 25.9026 26.6275 24.942C26.13 24.0264 25.4341 23.2961 24.5423 22.7457C24.4656 22.6901 24.3756 22.6478 24.2989 22.5922C23.0737 21.8195 22.3222 20.7267 22.0576 19.3031C21.5839 16.7416 23.1954 14.2701 25.7225 13.6615C26.6169 13.4524 27.4875 13.4736 28.3607 13.7488C29.0778 13.9711 29.7632 14.2674 30.4459 14.5876C30.9196 14.8099 31.3721 15.0507 31.8272 15.3047C31.8828 15.3391 31.9251 15.3603 31.9939 15.4026C31.9939 15.4476 32.0045 15.4794 32.0045 15.5243C32.0045 16.1091 31.9701 16.7045 31.9277 17.2893C31.851 18.1493 31.7187 19.012 31.5414 19.8508C30.9989 22.3461 30.041 24.6536 28.6492 26.7943C28.2628 27.3897 27.8447 27.9639 27.4028 28.517C27.3578 28.5514 27.334 28.5937 27.2679 28.6281V28.6281Z" fill="#67B2E8"/>
<path fill-rule="evenodd" clip-rule="evenodd" d="M21.5086 33.5677C21.3419 33.5015 20.8365 33.1919 20.294 32.8294C19.09 32.025 17.976 31.0962 16.9599 30.0589C15.9464 29.019 15.0414 27.8838 14.2661 26.6586C13.5384 25.5207 12.9324 24.33 12.4455 23.0704C12.4349 23.036 12.4244 23.0148 12.4111 22.9593C12.4667 22.9937 12.4879 23.0042 12.5223 23.0254C12.9086 23.3244 13.3161 23.5785 13.758 23.7637C14.3217 24.0071 14.9065 24.1738 15.523 24.2268C16.7693 24.3485 17.9389 24.0945 19.045 23.4753C19.6193 23.1551 20.2385 22.946 20.8894 22.8561C23.1969 22.5703 25.4937 23.9383 26.2108 26.3225C26.576 27.5477 26.4649 28.7385 25.9012 29.9001C25.8245 30.0536 25.7583 30.1991 25.6789 30.342C25.634 30.4294 25.581 30.5193 25.5017 30.5855C24.3347 31.6916 23.054 32.6627 21.6647 33.4804C21.6092 33.5121 21.5536 33.5465 21.5086 33.5677V33.5677Z" fill="#00C4B3"/>
</g>
</svg>
