<svg width="20" height="21" viewBox="0 0 20 21" fill="none" xmlns="http://www.w3.org/2000/svg">
<path d="M5.24162 12.4084C5.16351 12.4859 5.10151 12.578 5.05921 12.6796C5.0169 12.7811 4.99512 12.89 4.99512 13.0001C4.99512 13.1101 5.0169 13.219 5.05921 13.3205C5.10151 13.4221 5.16351 13.5142 5.24162 13.5917L9.40828 17.7584C9.48575 17.8365 9.57792 17.8985 9.67947 17.9408C9.78102 17.9831 9.88994 18.0049 9.99995 18.0049C10.11 18.0049 10.2189 17.9831 10.3204 17.9408C10.422 17.8985 10.5141 17.8365 10.5916 17.7584L14.7583 13.5917C14.8364 13.5142 14.8984 13.4221 14.9407 13.3205C14.983 13.219 15.0048 13.1101 15.0048 13.0001C15.0048 12.89 14.983 12.7811 14.9407 12.6796C14.8984 12.578 14.8364 12.4859 14.7583 12.4084C14.6808 12.3303 14.5886 12.2683 14.4871 12.226C14.3855 12.1837 14.2766 12.1619 14.1666 12.1619C14.0566 12.1619 13.9477 12.1837 13.8461 12.226C13.7446 12.2683 13.6524 12.3303 13.5749 12.4084L9.99995 15.9917L6.42495 12.4084C6.34748 12.3303 6.25531 12.2683 6.15376 12.226C6.05221 12.1837 5.94329 12.1619 5.83328 12.1619C5.72327 12.1619 5.61435 12.1837 5.5128 12.226C5.41125 12.2683 5.31908 12.3303 5.24162 12.4084ZM9.40828 3.24172L5.24162 7.40838C5.16392 7.48608 5.10228 7.57832 5.06023 7.67984C5.01818 7.78136 4.99654 7.89017 4.99654 8.00005C4.99654 8.22197 5.0847 8.4348 5.24162 8.59172C5.31931 8.66942 5.41156 8.73105 5.51307 8.7731C5.61459 8.81515 5.7234 8.83679 5.83328 8.83679C6.0552 8.83679 6.26803 8.74864 6.42495 8.59172L9.99995 5.00838L13.5749 8.59172C13.6524 8.66982 13.7446 8.73182 13.8461 8.77413C13.9477 8.81643 14.0566 8.83822 14.1666 8.83822C14.2766 8.83822 14.3855 8.81643 14.4871 8.77413C14.5886 8.73182 14.6808 8.66982 14.7583 8.59172C14.8364 8.51425 14.8984 8.42208 14.9407 8.32053C14.983 8.21898 15.0048 8.11006 15.0048 8.00005C15.0048 7.89004 14.983 7.78112 14.9407 7.67957C14.8984 7.57802 14.8364 7.48585 14.7583 7.40838L10.5916 3.24172C10.5141 3.16361 10.422 3.10161 10.3204 3.05931C10.2189 3.017 10.11 2.99522 9.99995 2.99522C9.88994 2.99522 9.78102 3.017 9.67947 3.05931C9.57792 3.10161 9.48575 3.16361 9.40828 3.24172Z" fill="#DEDEDE"/>
</svg>
