<svg width="10" height="18" viewBox="0 0 10 18" fill="none" xmlns="http://www.w3.org/2000/svg">
<path d="M4.99989 14.625C4.68878 14.625 4.44434 14.3775 4.44434 14.0625V3.9375C4.44434 3.6225 4.68878 3.375 4.99989 3.375C5.311 3.375 5.55545 3.6225 5.55545 3.9375V14.0625C5.55545 14.3775 5.311 14.625 4.99989 14.625Z" fill="#FF0000"/>
<path d="M5.00011 15.75C4.92725 15.7509 4.85501 15.7364 4.78803 15.7073C4.72105 15.6782 4.66083 15.6353 4.61122 15.5813L0.722331 11.6438C0.500109 11.4188 0.500109 11.07 0.722331 10.845C0.944553 10.62 1.289 10.62 1.51122 10.845L5.01122 14.3888L8.51122 10.845C8.73344 10.62 9.07789 10.62 9.30011 10.845C9.52233 11.07 9.52233 11.4188 9.30011 11.6438L5.41122 15.5813C5.30011 15.6938 5.15566 15.75 5.02233 15.75H5.00011Z" fill="#FF0000"/>
</svg>
