<svg width="16" height="17" viewBox="0 0 16 17" fill="none" xmlns="http://www.w3.org/2000/svg">
<path d="M7.99993 0.178589C6.44955 0.178589 4.96267 0.81073 3.86638 1.93595C2.7701 3.06117 2.15421 4.58729 2.15421 6.17859V9.20259C2.15433 9.33556 2.12431 9.46673 2.06652 9.58573L0.632652 12.5283C0.562609 12.6721 0.529536 12.8318 0.536573 12.9924C0.54361 13.153 0.590523 13.309 0.672858 13.4457C0.755194 13.5825 0.870216 13.6953 1.007 13.7736C1.14379 13.8518 1.29779 13.8929 1.45439 13.8929H14.5455C14.7021 13.8929 14.8561 13.8518 14.9929 13.7736C15.1296 13.6953 15.2447 13.5825 15.327 13.4457C15.4093 13.309 15.4563 13.153 15.4633 12.9924C15.4703 12.8318 15.4373 12.6721 15.3672 12.5283L13.9342 9.58573C13.8761 9.4668 13.8458 9.33562 13.8456 9.20259V6.17859C13.8456 4.58729 13.2298 3.06117 12.1335 1.93595C11.0372 0.81073 9.55031 0.178589 7.99993 0.178589ZM7.99993 16.4643C7.48162 16.4646 6.97599 16.2999 6.55271 15.9928C6.12944 15.6858 5.80936 15.2516 5.63659 14.75H10.3633C10.1905 15.2516 9.87042 15.6858 9.44715 15.9928C9.02387 16.2999 8.51824 16.4646 7.99993 16.4643Z" fill="#00A983"/>
</svg>
