<svg width="18" height="19" viewBox="0 0 18 19" fill="none" xmlns="http://www.w3.org/2000/svg">
<path d="M1.6875 9.5C1.6875 5.46125 4.96125 2.1875 9 2.1875C13.0388 2.1875 16.3125 5.46125 16.3125 9.5C16.3125 13.5388 13.0388 16.8125 9 16.8125C4.96125 16.8125 1.6875 13.5388 1.6875 9.5ZM12.3975 8.3975C12.4528 8.346 12.4971 8.2839 12.5278 8.2149C12.5586 8.1459 12.5751 8.07142 12.5764 7.99589C12.5778 7.92036 12.5639 7.84534 12.5356 7.7753C12.5073 7.70526 12.4652 7.64164 12.4118 7.58822C12.3584 7.53481 12.2947 7.4927 12.2247 7.46441C12.1547 7.43612 12.0796 7.42222 12.0041 7.42356C11.9286 7.42489 11.8541 7.44142 11.7851 7.47216C11.7161 7.50291 11.654 7.54724 11.6025 7.6025L9.375 9.83L8.2725 8.7275C8.16703 8.62216 8.02406 8.56299 7.875 8.56299C7.72594 8.56299 7.58297 8.62216 7.4775 8.7275L5.6025 10.6025C5.54723 10.654 5.50291 10.7161 5.47216 10.7851C5.44142 10.8541 5.42489 10.9286 5.42356 11.0041C5.42222 11.0796 5.43612 11.1547 5.46441 11.2247C5.4927 11.2947 5.53481 11.3584 5.58822 11.4118C5.64164 11.4652 5.70526 11.5073 5.7753 11.5356C5.84534 11.5639 5.92036 11.5778 5.99589 11.5764C6.07142 11.5751 6.1459 11.5586 6.2149 11.5278C6.2839 11.4971 6.346 11.4528 6.3975 11.3975L7.875 9.92L8.9775 11.0225C9.08297 11.1278 9.22594 11.187 9.375 11.187C9.52406 11.187 9.66703 11.1278 9.7725 11.0225L12.3975 8.3975Z" fill="url(#paint0_linear_153_447)"/>
<path d="M1.6875 9.5C1.6875 5.46125 4.96125 2.1875 9 2.1875C13.0388 2.1875 16.3125 5.46125 16.3125 9.5C16.3125 13.5388 13.0388 16.8125 9 16.8125C4.96125 16.8125 1.6875 13.5388 1.6875 9.5ZM12.3975 8.3975C12.4528 8.346 12.4971 8.2839 12.5278 8.2149C12.5586 8.1459 12.5751 8.07142 12.5764 7.99589C12.5778 7.92036 12.5639 7.84534 12.5356 7.7753C12.5073 7.70526 12.4652 7.64164 12.4118 7.58822C12.3584 7.53481 12.2947 7.4927 12.2247 7.46441C12.1547 7.43612 12.0796 7.42222 12.0041 7.42356C11.9286 7.42489 11.8541 7.44142 11.7851 7.47216C11.7161 7.50291 11.654 7.54724 11.6025 7.6025L9.375 9.83L8.2725 8.7275C8.16703 8.62216 8.02406 8.56299 7.875 8.56299C7.72594 8.56299 7.58297 8.62216 7.4775 8.7275L5.6025 10.6025C5.54723 10.654 5.50291 10.7161 5.47216 10.7851C5.44142 10.8541 5.42489 10.9286 5.42356 11.0041C5.42222 11.0796 5.43612 11.1547 5.46441 11.2247C5.4927 11.2947 5.53481 11.3584 5.58822 11.4118C5.64164 11.4652 5.70526 11.5073 5.7753 11.5356C5.84534 11.5639 5.92036 11.5778 5.99589 11.5764C6.07142 11.5751 6.1459 11.5586 6.2149 11.5278C6.2839 11.4971 6.346 11.4528 6.3975 11.3975L7.875 9.92L8.9775 11.0225C9.08297 11.1278 9.22594 11.187 9.375 11.187C9.52406 11.187 9.66703 11.1278 9.7725 11.0225L12.3975 8.3975Z" fill="black" fill-opacity="0.2"/>
<defs>
<linearGradient id="paint0_linear_153_447" x1="-2.10937" y1="10.1452" x2="36.0525" y2="10.37" gradientUnits="userSpaceOnUse">
<stop stop-color="white"/>
<stop offset="1" stop-color="#00A983"/>
</linearGradient>
</defs>
</svg>
